<svg width="188" height="21" viewBox="0 0 188 21" fill="none" xmlns="http://www.w3.org/2000/svg">
<g clip-path="url(#clip0_110_4)">
<path d="M12.413 -7.45236e-05C12.515 -0.00224133 12.6163 0.0165192 12.7107 0.0550694C12.8051 0.0936197 12.8905 0.151128 12.9617 0.224012C13.1082 0.374459 13.189 0.576723 13.1863 0.786485V20.2178C13.1887 20.4275 13.108 20.6297 12.9617 20.7803C12.8904 20.853 12.8049 20.9103 12.7105 20.9489C12.6162 20.9874 12.5149 21.0063 12.413 21.0044C12.3088 21.0079 12.2051 20.9901 12.1081 20.9519C12.0111 20.9138 11.9231 20.8561 11.8494 20.7825C11.7757 20.709 11.7179 20.6211 11.6797 20.5244C11.6414 20.4276 11.6235 20.324 11.6271 20.2201V11.2772H1.55696V20.2156C1.55925 20.4253 1.47855 20.6274 1.3324 20.7781C1.18624 20.922 0.989057 21.0025 0.78372 21.0022C0.679549 21.0057 0.575759 20.9878 0.478796 20.9497C0.381833 20.9115 0.293767 20.8539 0.220063 20.7803C0.14636 20.7068 0.0885954 20.6189 0.0503527 20.5221C0.01211 20.4254 -0.00579318 20.3218 -0.00224468 20.2178V0.784251C-0.00568252 0.680324 0.0122965 0.576793 0.0505783 0.480081C0.0888601 0.38337 0.146629 0.295533 0.220309 0.222006C0.293989 0.148478 0.382011 0.0908326 0.478924 0.0526303C0.575837 0.0144279 0.679577 -0.00350523 0.78372 -7.45236e-05C0.989105 -0.000679513 1.18638 0.0798818 1.3324 0.224012C1.47876 0.374549 1.55949 0.576753 1.55696 0.786485V9.72491H11.6271V0.784251C11.6236 0.680324 11.6416 0.576793 11.6799 0.480081C11.7182 0.38337 11.7759 0.295533 11.8496 0.222006C11.9233 0.148478 12.0113 0.0908326 12.1082 0.0526303C12.2051 0.0144279 12.3089 -0.00350523 12.413 -7.45236e-05Z" fill="#7E1625"/>
<path d="M29.8974 20.2156C29.9009 20.3196 29.883 20.4232 29.8448 20.5199C29.8065 20.6167 29.7488 20.7046 29.675 20.7781C29.6013 20.8517 29.5133 20.9093 29.4163 20.9475C29.3194 20.9857 29.2156 21.0035 29.1114 21C29.0095 21.0019 28.9082 20.983 28.8139 20.9444C28.7195 20.9059 28.6341 20.8486 28.5627 20.7759C28.4165 20.6253 28.3358 20.4231 28.3382 20.2134V18.2899C27.7665 19.0813 27.0243 19.7346 26.1661 20.2017C25.3079 20.6689 24.3556 20.9379 23.3794 20.989C22.4031 21.0401 21.4279 20.872 20.5254 20.497C19.6229 20.1221 18.8162 19.5498 18.1648 18.8225C16.8321 17.4126 16.1079 15.5366 16.1482 13.5988V6.9701C16.1448 6.86617 16.1627 6.76264 16.201 6.66593C16.2393 6.56922 16.2971 6.48138 16.3708 6.40786C16.4444 6.33433 16.5325 6.27668 16.6294 6.23848C16.7263 6.20028 16.83 6.18232 16.9342 6.18575C17.1395 6.18539 17.3367 6.26594 17.4828 6.40986C17.6292 6.5604 17.7099 6.7626 17.7074 6.97234V13.6026C17.6758 15.1275 18.2333 16.6061 19.2644 17.7319C19.7293 18.2705 20.3051 18.7026 20.9527 18.9988C21.6002 19.295 22.3041 19.4484 23.0164 19.4484C23.7287 19.4484 24.4327 19.295 25.0802 18.9988C25.7277 18.7026 26.3036 18.2705 26.7685 17.7319C27.7999 16.6052 28.3621 15.1285 28.3404 13.6026V6.9701C28.338 6.7604 28.4187 6.55823 28.565 6.40761C28.6363 6.33494 28.7218 6.27759 28.8161 6.23905C28.9105 6.20052 29.0117 6.18162 29.1136 6.18352C29.2178 6.18009 29.3215 6.19802 29.4184 6.23622C29.5153 6.27443 29.6034 6.33207 29.6771 6.4056C29.7507 6.47913 29.8085 6.56699 29.8468 6.6637C29.8851 6.76041 29.9031 6.86392 29.8996 6.96784L29.8974 20.2156Z" fill="#7E1625"/>
<path d="M49.6656 6.18572C50.5286 6.18515 51.3804 6.38073 52.1563 6.75763C52.9323 7.13452 53.6121 7.68283 54.144 8.36095C55.3839 9.82175 56.0436 11.6857 55.9982 13.5996V20.2149C55.9992 20.3198 55.9786 20.4238 55.9378 20.5206C55.897 20.6173 55.8368 20.7047 55.7609 20.7773C55.6138 20.9196 55.417 20.9992 55.2122 20.9992C55.0074 20.9992 54.8106 20.9196 54.6635 20.7773C54.5875 20.7048 54.5273 20.6174 54.4864 20.5207C54.4456 20.4239 54.4251 20.3198 54.4263 20.2149V13.5996C54.4654 12.0975 53.9715 10.63 53.0317 9.45603C52.6483 8.92465 52.1437 8.49184 51.5597 8.19333C50.9756 7.89482 50.3288 7.73916 49.6727 7.73916C49.0165 7.73916 48.3697 7.89482 47.7857 8.19333C47.2016 8.49184 46.697 8.92465 46.3136 9.45603C45.3652 10.6261 44.8657 12.0952 44.9048 13.5996V20.2149C44.9073 20.4246 44.8266 20.6267 44.6803 20.7773C44.5332 20.9196 44.3364 20.9992 44.1316 20.9992C43.9268 20.9992 43.73 20.9196 43.5829 20.7773C43.507 20.7047 43.4467 20.6173 43.4059 20.5206C43.3651 20.4239 43.3446 20.3198 43.3456 20.2149V13.5996C43.385 12.0976 42.8914 10.6301 41.9519 9.45603C41.5669 8.92442 41.061 8.49155 40.4757 8.19303C39.8905 7.89452 39.2426 7.73887 38.5853 7.73887C37.928 7.73887 37.2801 7.89452 36.6949 8.19303C36.1096 8.49155 35.6037 8.92442 35.2188 9.45603C34.2806 10.6253 33.7869 12.0879 33.825 13.5854V20.2149C33.8275 20.4246 33.7468 20.6268 33.6004 20.7773C33.4544 20.9215 33.2571 21.002 33.0517 21.0014C32.9476 21.005 32.8438 20.9871 32.7468 20.9489C32.6498 20.9108 32.5618 20.8531 32.4881 20.7796C32.4144 20.706 32.3566 20.6182 32.3184 20.5214C32.2801 20.4246 32.2622 20.321 32.2658 20.2171V6.97006C32.2623 6.86614 32.2803 6.76261 32.3186 6.66589C32.3569 6.56918 32.4146 6.48135 32.4883 6.40782C32.562 6.33429 32.65 6.27665 32.7469 6.23844C32.8439 6.20024 32.9476 6.18229 33.0517 6.18572C33.2571 6.18519 33.4543 6.26576 33.6004 6.40983C33.7468 6.56036 33.8275 6.76257 33.825 6.9723V8.73369C34.3475 7.95132 35.0553 7.30968 35.8857 6.86561C36.7161 6.42155 37.6435 6.1888 38.5857 6.18797C39.7591 6.18708 40.9022 6.56056 41.8478 7.2539C42.8368 7.96901 43.6236 8.92734 44.1316 10.0357C44.6305 8.92602 45.4129 7.96668 46.4004 7.2539C47.3475 6.56331 48.4896 6.19014 49.6625 6.18797" fill="#7E1625"/>
<path d="M65.3564 6.18562C67.3233 6.19292 69.2074 6.97693 70.5968 8.36628C71.9863 9.75563 72.7681 11.6373 72.7714 13.6002V20.2155C72.7749 20.3194 72.7569 20.423 72.7186 20.5197C72.6803 20.6164 72.6226 20.7042 72.5489 20.7778C72.4752 20.8513 72.3872 20.9089 72.2903 20.9471C72.1934 20.9853 72.0896 21.0033 71.9855 20.9998C71.7801 21.0004 71.5828 20.9199 71.4368 20.7757C71.2904 20.6252 71.2097 20.423 71.2122 20.2133V13.598C71.2158 12.2432 70.7489 10.929 69.891 9.87897C69.0331 8.82895 67.8372 8.10796 66.5067 7.83864C65.1762 7.56932 63.7933 7.76832 62.5932 8.40177C61.3931 9.03523 60.45 10.064 59.9243 11.3131C59.3986 12.5623 59.3229 13.9545 59.7098 15.2531C60.0968 16.5517 60.9226 17.6764 62.0469 18.4359C63.1711 19.1954 64.5243 19.5427 65.8762 19.4188C67.2281 19.295 68.4953 18.7075 69.4621 17.7564C69.6083 17.6124 69.8055 17.5319 70.0108 17.5323C70.115 17.5289 70.2187 17.5469 70.3156 17.5851C70.4125 17.6233 70.5006 17.6809 70.5742 17.7544C70.6479 17.828 70.7057 17.9158 70.744 18.0125C70.7822 18.1092 70.8002 18.2128 70.7968 18.3167C70.7987 18.4196 70.7785 18.5216 70.7376 18.6161C70.6966 18.7105 70.6359 18.7951 70.5595 18.8642C69.6915 19.7161 68.6268 20.3417 67.4593 20.686C66.2918 21.0302 65.0573 21.0824 63.8648 20.8381C62.6722 20.5938 61.5583 20.0603 60.6211 19.2849C59.684 18.5094 58.9524 17.5157 58.491 16.3915C58.0296 15.2672 57.8525 14.047 57.9754 12.8383C58.0982 11.6296 58.5171 10.4696 59.1953 9.4607C59.8735 8.45178 60.79 7.62488 61.8641 7.05295C62.9382 6.48101 64.1367 6.18162 65.3542 6.18115" fill="#7E1625"/>
<path d="M82.0099 6.18572C82.93 6.17739 83.8411 6.36744 84.6808 6.74285C85.5205 7.11827 86.2691 7.67022 86.8754 8.36095C88.2067 9.77778 88.9303 11.6577 88.892 13.5996V20.2149C88.8955 20.3188 88.8776 20.4224 88.8394 20.5191C88.8012 20.6159 88.7434 20.7038 88.6697 20.7773C88.596 20.8509 88.5079 20.9085 88.4109 20.9467C88.314 20.9849 88.2102 21.0027 88.106 20.9992C88.0041 21.0013 87.9027 20.9826 87.8084 20.944C87.714 20.9055 87.6285 20.848 87.5573 20.7751C87.411 20.6246 87.3302 20.4223 87.3328 20.2126V13.5973C87.3663 12.0678 86.8088 10.5841 85.7758 9.45378C85.3095 8.91503 84.7324 8.48285 84.0837 8.18661C83.435 7.89036 82.73 7.73702 82.0167 7.73702C81.3033 7.73702 80.5983 7.89036 79.9496 8.18661C79.3009 8.48285 78.7238 8.91503 78.2575 9.45378C77.226 10.5795 76.6683 12.0581 76.6998 13.5831V20.2126C76.7022 20.4223 76.6214 20.6245 76.4752 20.7751C76.3291 20.9191 76.1319 20.9996 75.9266 20.9992C75.8224 21.0027 75.7186 20.9849 75.6216 20.9467C75.5247 20.9085 75.4366 20.8509 75.3629 20.7773C75.2892 20.7038 75.2314 20.6159 75.1932 20.5191C75.1549 20.4224 75.137 20.3188 75.1406 20.2149V6.97006C75.1371 6.86614 75.1551 6.76261 75.1934 6.66589C75.2317 6.56918 75.2895 6.48135 75.3631 6.40782C75.4368 6.33429 75.5248 6.27665 75.6218 6.23844C75.7187 6.20024 75.8224 6.18229 75.9266 6.18572C76.1319 6.18535 76.3291 6.2659 76.4752 6.40983C76.6214 6.56045 76.7022 6.7626 76.6998 6.9723V8.89652C77.2984 8.04934 78.0945 7.36013 79.0195 6.88827C79.9444 6.41642 80.9704 6.17608 82.0092 6.18797" fill="#7E1625"/>
<path d="M98.9059 5.76212C100.414 5.76478 101.888 6.21354 103.141 7.0517C104.393 7.88986 105.369 9.07978 105.944 10.4711C106.519 11.8624 106.668 13.3927 106.372 14.8686C106.077 16.3444 105.349 17.6996 104.281 18.7628C103.214 19.826 101.854 20.5496 100.375 20.842C98.8953 21.1345 97.3622 20.9828 95.9691 20.406C94.576 19.8292 93.3855 18.8532 92.5481 17.6015C91.7106 16.3497 91.2638 14.8783 91.2641 13.3732V1.44753C91.2693 1.06521 91.4239 0.700026 91.6948 0.42966C91.9657 0.159295 92.3317 0.00510216 92.7148 -0.00011596C92.9073 -0.00270838 93.0984 0.0340471 93.2762 0.107915C93.4539 0.181783 93.6147 0.291187 93.7485 0.429387C93.8838 0.561632 93.9905 0.720137 94.0621 0.895113C94.1337 1.07009 94.1686 1.25783 94.1647 1.44678V13.3732C94.1651 14.3046 94.4421 15.215 94.9606 15.9894C95.4791 16.7639 96.216 17.3677 97.0781 17.7246C97.9402 18.0815 98.8889 18.1755 99.8045 17.9948C100.72 17.814 101.562 17.3666 102.223 16.7091C102.884 16.0515 103.335 15.2133 103.519 14.3001C103.703 13.387 103.611 12.4399 103.256 11.5785C102.902 10.7171 102.299 9.97987 101.524 9.45998C100.75 8.9401 99.8385 8.66084 98.9052 8.65744C98.2427 8.65576 97.5872 8.79239 96.9807 9.05856C96.8057 9.13793 96.6167 9.18181 96.4246 9.18766C96.2325 9.1935 96.0412 9.1612 95.8617 9.09262C95.6822 9.02404 95.5182 8.92055 95.3791 8.78818C95.2401 8.6558 95.1287 8.49719 95.0516 8.32152C94.9745 8.14584 94.9332 7.95662 94.9299 7.76486C94.9267 7.5731 94.9617 7.3826 95.0329 7.20446C95.1041 7.02631 95.21 6.86407 95.3446 6.72713C95.4792 6.59019 95.6396 6.4813 95.8167 6.40677C96.7894 5.97768 97.8417 5.75802 98.9052 5.76212" fill="#7E1625"/>
<path d="M148.321 12.8758C149.109 13.7905 149.544 14.956 149.547 16.1622C149.549 17.3683 149.12 18.5357 148.336 19.4538C147.887 19.9624 147.331 20.365 146.707 20.6324C146.084 20.8999 145.408 21.0255 144.73 21H140.476C140.1 20.9948 139.742 20.8436 139.476 20.5786C139.211 20.3135 139.059 19.9555 139.054 19.5807C139.051 19.3921 139.087 19.205 139.16 19.031C139.233 18.8569 139.341 18.6995 139.477 18.5686C139.605 18.4324 139.76 18.3244 139.932 18.2517C140.104 18.1791 140.29 18.1432 140.477 18.1465H144.731C145.004 18.1634 145.278 18.1206 145.534 18.0211C145.789 17.9217 146.02 17.768 146.21 17.5706C146.537 17.1823 146.708 16.6861 146.689 16.179C146.692 15.806 146.599 15.4385 146.421 15.1108C146.102 14.5017 144.998 14.1972 143.111 14.1972C142.544 14.2169 141.98 14.1112 141.459 13.8876C140.937 13.6641 140.472 13.3283 140.097 12.9042C139.428 12.1394 139.058 11.1604 139.052 10.1456C139.047 9.13089 139.408 8.1481 140.068 7.37651C140.446 6.94691 140.916 6.60669 141.442 6.38059C141.968 6.15448 142.538 6.04815 143.111 6.06928H147.249C147.626 6.06928 147.988 6.21881 148.254 6.48497C148.521 6.75114 148.671 7.11214 148.671 7.48855C148.674 7.67516 148.638 7.86039 148.566 8.03229C148.493 8.20418 148.385 8.35892 148.248 8.48652C148.119 8.62124 147.964 8.72818 147.792 8.80077C147.62 8.87335 147.435 8.91004 147.248 8.90857H143.107C142.941 8.89785 142.774 8.92375 142.619 8.98441C142.464 9.04508 142.324 9.13904 142.209 9.25965C142.004 9.50286 141.897 9.81373 141.909 10.1314C141.884 10.2953 141.897 10.4629 141.948 10.6209C141.999 10.7788 142.086 10.9228 142.202 11.0415C142.318 11.1601 142.461 11.2501 142.618 11.3044C142.775 11.3587 142.942 11.3757 143.107 11.3542C145.68 11.3542 147.417 11.8602 148.319 12.8721" fill="#7E1625"/>
<path d="M154.927 8.8973V13.5219C154.928 14.1301 155.049 14.7323 155.283 15.2939C155.517 15.8555 155.86 16.3656 156.292 16.795C156.723 17.2244 157.236 17.5648 157.799 17.7967C158.362 18.0286 158.966 18.1475 159.576 18.1465C159.951 18.1519 160.31 18.3031 160.575 18.5681C160.841 18.8331 160.993 19.191 160.998 19.5657C161.001 19.7543 160.964 19.9414 160.892 20.1154C160.819 20.2895 160.712 20.4469 160.576 20.5779C160.447 20.7127 160.292 20.8196 160.12 20.8922C159.948 20.9648 159.762 21.0015 159.576 21C157.589 20.9976 155.684 20.209 154.28 18.8071C152.875 17.4052 152.084 15.5045 152.082 13.5219V1.42073C152.08 1.23443 152.117 1.04975 152.19 0.878109C152.262 0.706469 152.369 0.55151 152.504 0.422755C152.632 0.286512 152.787 0.178541 152.959 0.105842C153.132 0.0331435 153.317 -0.00266775 153.504 0.000706365C153.691 0.000213576 153.876 0.0365839 154.049 0.107734C154.222 0.178885 154.379 0.283411 154.511 0.415301C154.643 0.54719 154.748 0.703846 154.819 0.876262C154.891 1.04868 154.927 1.23345 154.927 1.41997V6.05875H159.575C159.762 6.05825 159.947 6.09462 160.12 6.16577C160.293 6.23693 160.45 6.34145 160.582 6.47334C160.714 6.60523 160.819 6.76189 160.89 6.9343C160.961 7.10672 160.998 7.29149 160.997 7.47801C161.001 7.66456 160.965 7.84975 160.892 8.02164C160.819 8.19352 160.711 8.34829 160.575 8.47599C160.446 8.61074 160.291 8.71771 160.119 8.7903C159.947 8.86289 159.762 8.89955 159.575 8.89803L154.927 8.8973Z" fill="#7E1625"/>
<path d="M176.323 10.8521V10.8663C176.462 11.2149 176.457 11.6044 176.309 11.9495C176.161 12.2945 175.883 12.5671 175.534 12.7076L167.558 15.898C167.391 15.9635 167.213 15.9969 167.034 15.9966C166.745 16.0141 166.459 15.9358 166.219 15.7736C165.979 15.6114 165.8 15.3746 165.71 15.1002C165.571 14.7515 165.576 14.362 165.724 14.017C165.871 13.6719 166.15 13.3993 166.499 13.2589L172.964 10.6728C172.368 9.91607 171.551 9.36373 170.626 9.09284C169.7 8.82195 168.713 8.846 167.802 9.16164C166.891 9.47728 166.102 10.0688 165.544 10.8536C164.986 11.6384 164.687 12.5775 164.69 13.5398C164.692 14.5021 164.995 15.4396 165.557 16.2217C166.119 17.0037 166.912 17.5913 167.824 17.9024C168.737 18.2135 169.724 18.2326 170.648 17.9571C171.572 17.6816 172.386 17.1253 172.978 16.3656C173.093 16.2161 173.237 16.0916 173.402 15.9998C173.566 15.9079 173.748 15.8507 173.936 15.8315C174.121 15.8071 174.309 15.8211 174.488 15.8725C174.668 15.9239 174.835 16.0117 174.978 16.1303C175.129 16.243 175.255 16.3846 175.349 16.5469C175.444 16.7091 175.505 16.8886 175.528 17.0747C175.552 17.2608 175.538 17.4498 175.487 17.6304C175.436 17.811 175.349 17.9796 175.232 18.1262C174.552 19.0435 173.661 19.784 172.633 20.2854C171.606 20.7869 170.473 21.0345 169.33 21.0073C167.345 21.0073 165.441 20.2203 164.037 18.8195C162.633 17.4186 161.845 15.5186 161.845 13.5375C161.845 11.5564 162.633 9.65636 164.037 8.25549C165.441 6.85462 167.345 6.06763 169.33 6.06763C170.841 6.07009 172.317 6.52775 173.563 7.38073C174.81 8.23371 175.769 9.44228 176.316 10.8483L176.323 10.8521Z" fill="#7E1625"/>
<path d="M186.831 6.17072C187.016 6.20012 187.193 6.26787 187.351 6.36962C187.509 6.47137 187.643 6.6049 187.746 6.7616C187.856 6.9145 187.932 7.08836 187.971 7.27221C188.009 7.45606 188.009 7.64591 187.971 7.82978C187.938 8.01361 187.868 8.18903 187.767 8.34587C187.665 8.5027 187.533 8.6378 187.379 8.74334C187.225 8.85246 187.051 8.92872 186.867 8.96729C186.683 9.00586 186.493 9.00592 186.308 8.96745C186.087 8.92114 185.861 8.89759 185.635 8.89721C185.078 8.89509 184.528 9.01628 184.023 9.25201C183.519 9.48775 183.074 9.83218 182.719 10.2605C181.913 11.1546 181.476 12.3194 181.494 13.5218V19.5799C181.498 19.7652 181.463 19.9493 181.393 20.121C181.323 20.2926 181.218 20.4481 181.086 20.5778C180.954 20.7136 180.797 20.821 180.622 20.8936C180.448 20.9662 180.26 21.0024 180.071 20.9999C179.696 20.9945 179.337 20.8432 179.072 20.5782C178.806 20.3132 178.655 19.9553 178.649 19.5806V7.47945C178.655 7.10472 178.806 6.74685 179.072 6.48184C179.337 6.21684 179.696 6.06559 180.071 6.06018C180.26 6.05765 180.448 6.09378 180.622 6.16637C180.797 6.23896 180.955 6.34644 181.086 6.48221C181.218 6.61194 181.323 6.76743 181.393 6.93907C181.463 7.11071 181.498 7.29485 181.494 7.48018V7.50858C182.665 6.56387 184.128 6.05242 185.635 6.06091C186.036 6.06065 186.437 6.09816 186.832 6.17296" fill="#7E1625"/>
<path d="M130.017 6.05874C128.969 6.07218 127.935 6.30106 126.98 6.73109C126.024 7.16113 125.168 7.7831 124.464 8.55816C123.22 9.87181 122.245 11.4143 121.592 13.0998C121.044 14.4964 120.222 15.7692 119.173 16.843C118.709 17.3365 118.152 17.7329 117.533 18.0092C116.915 18.2854 116.247 18.436 115.57 18.452C114.262 18.452 113.007 17.9333 112.082 17.0102C111.157 16.087 110.637 14.8349 110.637 13.5293C110.637 12.2238 111.157 10.9717 112.082 10.0485C113.007 9.12533 114.262 8.60672 115.57 8.60672C118.205 8.60672 119.959 10.8716 120.864 12.4544C121.313 11.3437 121.751 10.3935 122.097 9.68685C120.739 7.89408 118.609 6.05874 115.571 6.05874C114.329 6.05095 113.105 6.35137 112.009 6.93298C110.913 7.51458 109.979 8.35911 109.292 9.3905C108.604 10.4219 108.184 11.6077 108.07 12.8413C107.956 14.0749 108.151 15.3175 108.637 16.4571C109.124 17.5968 109.887 18.5977 110.858 19.3698C111.829 20.142 112.977 20.6611 114.199 20.8803C115.42 21.0996 116.678 21.0122 117.857 20.626C119.037 20.2398 120.102 19.5669 120.956 18.6679C122.28 17.3223 123.314 15.7208 123.995 13.9618C124.526 12.6227 125.303 11.395 126.288 10.3427C126.758 9.81411 127.331 9.38736 127.973 9.08888C128.614 8.7904 129.311 8.62654 130.018 8.60745C131.326 8.60745 132.581 9.12609 133.506 10.0493C134.431 10.9724 134.951 12.2245 134.951 13.5301C134.951 14.8357 134.431 16.0877 133.506 17.0109C132.581 17.9341 131.326 18.4527 130.018 18.4527C127.363 18.4527 125.602 16.1528 124.704 14.5684C124.254 15.6844 123.811 16.6368 123.465 17.3382C124.823 19.1452 126.96 20.9984 130.018 20.9984C132.003 20.9984 133.907 20.2115 135.311 18.8106C136.715 17.4097 137.504 15.5097 137.504 13.5286C137.504 11.5475 136.715 9.64747 135.311 8.24661C133.907 6.84574 132.003 6.05874 130.018 6.05874" fill="#7E1625"/>
</g>
<defs>
<clipPath id="clip0_110_4">
<rect width="188" height="21" fill="white"/>
</clipPath>
</defs>
</svg>
