<svg width="20" height="20" viewBox="0 0 20 20" fill="none" xmlns="http://www.w3.org/2000/svg">
<circle cx="10" cy="10" r="10" fill="#7E1625"/>
<path d="M13.9797 8.35203C13.9609 7.92696 13.8922 7.63472 13.7937 7.3815C13.6921 7.11271 13.5358 6.87206 13.331 6.67201C13.1309 6.46884 12.8886 6.31097 12.6229 6.21098C12.3681 6.11251 12.0774 6.04377 11.6522 6.02503C11.2239 6.0047 11.0879 6 10.0016 6C8.9152 6 8.77922 6.0047 8.35248 6.02344C7.92732 6.04218 7.63504 6.11098 7.38182 6.20939C7.11292 6.31097 6.87223 6.46726 6.67214 6.67201C6.46893 6.87206 6.3111 7.1143 6.21102 7.37997C6.11253 7.63472 6.04378 7.92537 6.02503 8.35044C6.0047 8.77869 6 8.91464 6 10.0008C6 11.0869 6.0047 11.2229 6.02345 11.6496C6.04219 12.0746 6.11101 12.3669 6.20949 12.6201C6.3111 12.8889 6.46893 13.1295 6.67214 13.3296C6.87223 13.5327 7.11451 13.6906 7.38024 13.7906C7.63504 13.8891 7.92574 13.9578 8.35095 13.9766C8.77763 13.9954 8.91367 14 10 14C11.0864 14 11.2224 13.9954 11.6491 13.9766C12.0743 13.9578 12.3666 13.8891 12.6198 13.7906C13.1575 13.5827 13.5827 13.1577 13.7906 12.6201C13.889 12.3653 13.9578 12.0746 13.9766 11.6496C13.9953 11.2229 14 11.0869 14 10.0008C14 8.91464 13.9984 8.77869 13.9797 8.35203ZM13.2591 11.6183C13.2419 12.009 13.1763 12.22 13.1215 12.3606C12.9871 12.7092 12.7104 12.9858 12.3619 13.1202C12.2212 13.1749 12.0086 13.2405 11.6194 13.2577C11.1973 13.2765 11.0708 13.2811 10.0031 13.2811C8.93553 13.2811 8.80737 13.2765 8.38685 13.2577C7.99608 13.2405 7.78506 13.1749 7.64438 13.1202C7.47091 13.0561 7.31301 12.9545 7.18485 12.8217C7.05198 12.6919 6.95038 12.5357 6.88627 12.3622C6.83156 12.2216 6.76592 12.009 6.74877 11.6199C6.72996 11.1979 6.72532 11.0713 6.72532 10.0039C6.72532 8.9365 6.72996 8.80836 6.74877 8.38799C6.76592 7.99728 6.83156 7.7863 6.88627 7.64565C6.95038 7.47215 7.05198 7.31435 7.18644 7.18615C7.31612 7.05331 7.47244 6.95173 7.64597 6.88769C7.78664 6.83299 7.99925 6.76736 8.38844 6.75015C8.81048 6.73141 8.93712 6.72671 10.0047 6.72671C11.0739 6.72671 11.2004 6.73141 11.621 6.75015C12.0117 6.76736 12.2228 6.83299 12.3634 6.88769C12.5369 6.95173 12.6948 7.05331 12.823 7.18615C12.9558 7.31587 13.0574 7.47215 13.1215 7.64565C13.1763 7.7863 13.2419 7.99881 13.2591 8.38799C13.2779 8.80994 13.2826 8.9365 13.2826 10.0039C13.2826 11.0713 13.2779 11.1963 13.2591 11.6183Z" fill="white"/>
<path d="M10.0015 7.94556C8.86674 7.94556 7.94604 8.86603 7.94604 10.0007C7.94604 11.1353 8.86674 12.0557 10.0015 12.0557C11.1363 12.0557 12.0569 11.1353 12.0569 10.0007C12.0569 8.86603 11.1363 7.94556 10.0015 7.94556ZM10.0015 11.3337C9.26532 11.3337 8.66818 10.7368 8.66818 10.0007C8.66818 9.26454 9.26532 8.66756 10.0015 8.66756C10.7377 8.66756 11.3348 9.26454 11.3348 10.0007C11.3348 10.7368 10.7377 11.3337 10.0015 11.3337Z" fill="white"/>
<path d="M12.618 7.86468C12.618 8.12984 12.4032 8.34484 12.1381 8.34484C11.8731 8.34484 11.6583 8.12984 11.6583 7.86468C11.6583 7.59946 11.8731 7.38452 12.1381 7.38452C12.4032 7.38452 12.618 7.59946 12.618 7.86468Z" fill="white"/>
</svg>
