<svg width="34" height="34" viewBox="0 0 34 34" fill="none" xmlns="http://www.w3.org/2000/svg">
<g opacity="0.8">
<path d="M17 34.0001C13.6377 34.0001 10.351 33.003 7.55532 31.135C4.75969 29.267 2.58075 26.612 1.29406 23.5057C0.00736558 20.3993 -0.329291 16.9812 0.326658 13.6835C0.982608 10.3858 2.6017 7.3567 4.9792 4.9792C7.3567 2.6017 10.3858 0.982608 13.6835 0.326658C16.9812 -0.329291 20.3993 0.00736558 23.5057 1.29406C26.612 2.58075 29.267 4.75969 31.135 7.55532C33.003 10.351 34.0001 13.6377 34.0001 17C33.995 21.5072 32.2023 25.8283 29.0153 29.0153C25.8283 32.2023 21.5072 33.995 17 34.0001ZM17 1.36001C13.9067 1.36001 10.8829 2.27728 8.3109 3.99583C5.73891 5.71438 3.73429 8.15701 2.55054 11.0149C1.36678 13.8727 1.05705 17.0174 1.66053 20.0512C2.264 23.0851 3.75357 25.8719 5.94087 28.0592C8.12816 30.2465 10.9149 31.7361 13.9488 32.3395C16.9827 32.943 20.1274 32.6333 22.9852 31.4495C25.8431 30.2658 28.2857 28.2612 30.0042 25.6892C31.7228 23.1172 32.6401 20.0933 32.6401 17C32.6356 12.8534 30.9863 8.87793 28.0542 5.94584C25.1221 3.01374 21.1466 1.36451 17 1.36001Z" fill="white"/>
<path d="M13.9026 20.9658C8.06414 17.0734 0.816014 17.6718 0.741214 17.68L0.618134 16.32C0.935694 16.2928 8.4089 15.6672 14.6574 19.8315L13.9026 20.9658Z" fill="white"/>
<path d="M3.88077 26.3208L2.91925 25.3593C3.26401 25.0179 11.5287 17 33.3201 17V18.36C12.087 18.36 3.96033 26.2412 3.88077 26.3208Z" fill="white"/>
<path d="M7.72414 22.9629C3.84541 19.7302 0.578006 19.0332 0.544006 19.0264L0.816006 17.6936C0.961527 17.7228 4.43361 18.447 8.59862 21.9171L7.72414 22.9629Z" fill="white"/>
<path d="M4.95927 24.2807C3.88121 23.1707 2.5817 22.2998 1.14514 21.7246L1.5749 20.4326C3.2134 21.0715 4.69548 22.055 5.92079 23.3165L4.95927 24.2807Z" fill="white"/>
<path d="M7.37664 29.6004L6.22064 28.8796C9.67641 23.3505 18.3471 18.6388 18.715 18.4409L19.3603 19.6391C19.276 19.6853 10.64 24.3787 7.37664 29.6004Z" fill="white"/>
<path d="M10.88 32.6401C10.7591 32.64 10.6404 32.6076 10.5361 32.5464C10.4318 32.4851 10.3458 32.3972 10.2868 32.2916C10.2278 32.186 10.1981 32.0666 10.2007 31.9457C10.2032 31.8248 10.238 31.7068 10.3013 31.6038C13.6777 26.1399 18.1498 21.4351 23.4356 17.7861C23.5878 17.6893 23.7722 17.6569 23.9483 17.696C24.1244 17.7352 24.2778 17.8427 24.3746 17.9949C24.4715 18.1471 24.5039 18.3316 24.4647 18.5077C24.4256 18.6838 24.3181 18.8371 24.1659 18.934C19.0697 22.4902 14.7473 27.0427 11.4601 32.3164C11.3991 32.4154 11.3138 32.4972 11.2122 32.5539C11.1107 32.6105 10.9963 32.6402 10.88 32.6401Z" fill="white"/>
<path d="M17 34C16.8932 34.0001 16.788 33.9749 16.6927 33.9267C16.5975 33.8784 16.5149 33.8084 16.4518 33.7224C16.3886 33.6363 16.3466 33.5365 16.3291 33.4312C16.3117 33.3259 16.3193 33.2179 16.3513 33.116C19.8064 22.0592 31.2168 17.2503 31.701 17.051C31.8678 16.9823 32.0551 16.9827 32.2216 17.0521C32.3882 17.1214 32.5203 17.2541 32.589 17.4209C32.6578 17.5878 32.6574 17.775 32.588 17.9416C32.5186 18.1081 32.3859 18.2403 32.2191 18.309C32.1069 18.3553 20.9107 23.0847 17.6487 33.5227C17.6056 33.661 17.5193 33.7819 17.4027 33.8677C17.286 33.9536 17.1449 34 17 34Z" fill="white"/>
<path d="M10.336 22.168C8.44562 19.6473 2.56429 17.6651 2.50513 17.6447L2.93489 16.3527C3.19329 16.4383 9.28066 18.4919 11.424 21.3493L10.336 22.168Z" fill="white"/>
<path d="M20.4 12.2401C19.8621 12.2401 19.3362 12.0805 18.8889 11.7817C18.4416 11.4828 18.0929 11.058 17.8871 10.561C17.6812 10.0639 17.6273 9.51704 17.7323 8.98941C17.8372 8.46178 18.0963 7.97712 18.4767 7.59672C18.8571 7.21632 19.3418 6.95727 19.8694 6.85231C20.397 6.74736 20.9439 6.80123 21.4409 7.0071C21.9379 7.21297 22.3628 7.5616 22.6616 8.0089C22.9605 8.4562 23.12 8.98209 23.12 9.52005C23.12 10.2414 22.8335 10.9333 22.3234 11.4434C21.8133 11.9535 21.1214 12.2401 20.4 12.2401Z" fill="white"/>
<path d="M11.56 17C11.3797 17 11.2067 16.9284 11.0792 16.8008C10.9517 16.6733 10.88 16.5004 10.88 16.32V13.8815L8.16002 11.1615L5.44002 13.8815V14.96C5.44002 15.1404 5.36838 15.3133 5.24085 15.4408C5.11333 15.5684 4.94037 15.64 4.76002 15.64C4.57967 15.64 4.40671 15.5684 4.27918 15.4408C4.15166 15.3133 4.08002 15.1404 4.08002 14.96V13.6C4.08006 13.4197 4.15172 13.2467 4.27926 13.1192L7.67926 9.71924C7.80678 9.59176 7.97971 9.52014 8.16002 9.52014C8.34033 9.52014 8.51327 9.59176 8.64078 9.71924L12.0408 13.1192C12.1683 13.2467 12.24 13.4197 12.24 13.6V16.32C12.24 16.5004 12.1684 16.6733 12.0409 16.8008C11.9133 16.9284 11.7404 17 11.56 17Z" fill="white"/>
<path d="M20.4 6.11996C20.2197 6.11996 20.0467 6.04832 19.9192 5.92079C19.7917 5.79327 19.72 5.62031 19.72 5.43996V4.75996C19.72 4.57961 19.7917 4.40665 19.9192 4.27912C20.0467 4.1516 20.2197 4.07996 20.4 4.07996C20.5804 4.07996 20.7533 4.1516 20.8809 4.27912C21.0084 4.40665 21.08 4.57961 21.08 4.75996V5.43996C21.08 5.62031 21.0084 5.79327 20.8809 5.92079C20.7533 6.04832 20.5804 6.11996 20.4 6.11996Z" fill="white"/>
<path d="M17.5155 7.3155C17.3351 7.31546 17.1622 7.24379 17.0347 7.11626L16.5533 6.63482C16.4883 6.57209 16.4365 6.49705 16.4009 6.41409C16.3652 6.33113 16.3465 6.2419 16.3457 6.15161C16.3449 6.06132 16.3621 5.97178 16.3963 5.88821C16.4305 5.80464 16.481 5.72871 16.5448 5.66487C16.6087 5.60102 16.6846 5.55053 16.7682 5.51634C16.8517 5.48214 16.9413 5.46494 17.0316 5.46572C17.1219 5.46651 17.2111 5.48527 17.2941 5.52091C17.377 5.55654 17.4521 5.60835 17.5148 5.67329L17.9962 6.15474C18.0913 6.24984 18.156 6.37099 18.1823 6.50287C18.2085 6.63476 18.195 6.77146 18.1436 6.8957C18.0921 7.01994 18.005 7.12613 17.8932 7.20085C17.7814 7.27557 17.6499 7.31547 17.5155 7.3155Z" fill="white"/>
<path d="M16.32 10.2H15.64C15.4597 10.2 15.2867 10.1283 15.1592 10.0008C15.0317 9.87328 14.96 9.70031 14.96 9.51997C14.96 9.33962 15.0317 9.16666 15.1592 9.03913C15.2867 8.91161 15.4597 8.83997 15.64 8.83997H16.32C16.5004 8.83997 16.6733 8.91161 16.8009 9.03913C16.9284 9.16666 17 9.33962 17 9.51997C17 9.70031 16.9284 9.87328 16.8009 10.0008C16.6733 10.1283 16.5004 10.2 16.32 10.2Z" fill="white"/>
<path d="M17.034 13.566C16.8996 13.566 16.7681 13.5261 16.6563 13.4513C16.5445 13.3766 16.4574 13.2704 16.4059 13.1462C16.3545 13.022 16.341 12.8853 16.3672 12.7534C16.3935 12.6215 16.4582 12.5003 16.5533 12.4052L17.0347 11.9238C17.163 11.7999 17.3347 11.7314 17.513 11.7329C17.6913 11.7345 17.8619 11.806 17.988 11.9321C18.114 12.0582 18.1856 12.2287 18.1871 12.407C18.1887 12.5853 18.1201 12.7571 17.9962 12.8853L17.5148 13.3668C17.4518 13.4301 17.3769 13.4804 17.2944 13.5146C17.2119 13.5488 17.1234 13.5662 17.034 13.566Z" fill="white"/>
<path d="M20.4 14.96C20.2197 14.96 20.0467 14.8884 19.9192 14.7609C19.7917 14.6334 19.72 14.4604 19.72 14.28V13.6C19.72 13.4197 19.7917 13.2467 19.9192 13.1192C20.0467 12.9917 20.2197 12.92 20.4 12.92C20.5804 12.92 20.7533 12.9917 20.8809 13.1192C21.0084 13.2467 21.08 13.4197 21.08 13.6V14.28C21.08 14.4604 21.0084 14.6334 20.8809 14.7609C20.7533 14.8884 20.5804 14.96 20.4 14.96Z" fill="white"/>
<path d="M23.766 13.566C23.6767 13.5662 23.5882 13.5488 23.5057 13.5146C23.4232 13.4804 23.3482 13.4301 23.2853 13.3668L22.8038 12.8853C22.68 12.7571 22.6114 12.5853 22.613 12.407C22.6145 12.2287 22.686 12.0582 22.8121 11.9321C22.9382 11.806 23.1087 11.7345 23.287 11.7329C23.4653 11.7314 23.6371 11.7999 23.7654 11.9238L24.2468 12.4052C24.3419 12.5003 24.4066 12.6215 24.4328 12.7534C24.4591 12.8853 24.4456 13.022 24.3941 13.1462C24.3427 13.2704 24.2555 13.3766 24.1437 13.4513C24.0319 13.5261 23.9005 13.566 23.766 13.566Z" fill="white"/>
<path d="M25.1601 10.2H24.48C24.2997 10.2 24.1267 10.1283 23.9992 10.0008C23.8717 9.87328 23.8 9.70031 23.8 9.51997C23.8 9.33962 23.8717 9.16666 23.9992 9.03913C24.1267 8.91161 24.2997 8.83997 24.48 8.83997H25.1601C25.3404 8.83997 25.5134 8.91161 25.6409 9.03913C25.7684 9.16666 25.8401 9.33962 25.8401 9.51997C25.8401 9.70031 25.7684 9.87328 25.6409 10.0008C25.5134 10.1283 25.3404 10.2 25.1601 10.2Z" fill="white"/>
<path d="M23.2846 7.3155C23.1501 7.31547 23.0187 7.27557 22.9069 7.20085C22.7951 7.12613 22.7079 7.01994 22.6565 6.8957C22.605 6.77146 22.5916 6.63476 22.6178 6.50287C22.644 6.37099 22.7088 6.24984 22.8038 6.15474L23.2853 5.67329C23.348 5.60835 23.423 5.55654 23.506 5.52091C23.589 5.48527 23.6782 5.46651 23.7685 5.46572C23.8588 5.46494 23.9483 5.48214 24.0319 5.51634C24.1155 5.55053 24.1914 5.60102 24.2552 5.66487C24.3191 5.72871 24.3696 5.80464 24.4038 5.88821C24.4379 5.97178 24.4551 6.06132 24.4544 6.15161C24.4536 6.2419 24.4348 6.33113 24.3992 6.41409C24.3635 6.49705 24.3117 6.57209 24.2468 6.63482L23.7654 7.11626C23.6379 7.24379 23.4649 7.31546 23.2846 7.3155Z" fill="white"/>
<path d="M26.4962 30.779L25.1838 30.4213C26.4752 25.7474 29.1733 21.5839 32.912 18.4961L33.728 19.5841C30.2493 22.506 27.7296 26.4065 26.4962 30.779Z" fill="white"/>
</g>
</svg>
