<svg width="13" height="15" viewBox="0 0 13 15" fill="none" xmlns="http://www.w3.org/2000/svg">
<path d="M5 6.5C5 6.89782 5.15804 7.27936 5.43934 7.56066C5.72064 7.84196 6.10218 8 6.5 8C6.89782 8 7.27936 7.84196 7.56066 7.56066C7.84196 7.27936 8 6.89782 8 6.5C8 6.10218 7.84196 5.72064 7.56066 5.43934C7.27936 5.15804 6.89782 5 6.5 5C6.10218 5 5.72064 5.15804 5.43934 5.43934C5.15804 5.72064 5 6.10218 5 6.5Z" fill="#7E1625"/>
<path d="M10.3892 10.6045L7.47212 13.5885C7.2143 13.852 6.86478 14 6.50034 14C6.13591 14 5.78639 13.852 5.52856 13.5885L2.61081 10.6045C1.84165 9.81765 1.31786 8.81515 1.10566 7.72377C0.893467 6.63239 1.0024 5.50116 1.41869 4.47311C1.83498 3.44506 2.53993 2.56638 3.44439 1.94817C4.34886 1.32997 5.41222 1 6.5 1C7.58778 1 8.65114 1.32997 9.55561 1.94817C10.4601 2.56638 11.165 3.44506 11.5813 4.47311C11.9976 5.50116 12.1065 6.63239 11.8943 7.72377C11.6821 8.81515 11.1583 9.81765 10.3892 10.6045Z" stroke="#7E1625" stroke-width="1.5" stroke-linecap="round" stroke-linejoin="round"/>
</svg>
