<svg width="50" height="37" viewBox="0 0 50 37" fill="none" xmlns="http://www.w3.org/2000/svg">
<g opacity="0.8">
<path d="M25.7824 36.8449H2.34419C2.199 36.8449 2.05667 36.8045 1.93316 36.7282C1.80965 36.6519 1.70984 36.5427 1.64495 36.4128L0.082398 33.2877C0.0228628 33.1686 -0.00522575 33.0362 0.000800149 32.9032C0.00682605 32.7701 0.0467663 32.6408 0.116827 32.5275C0.186889 32.4143 0.284744 32.3208 0.401101 32.256C0.517457 32.1912 0.64845 32.1572 0.781638 32.1572H25.7824C25.9896 32.1572 26.1883 32.2395 26.3348 32.3861C26.4814 32.5326 26.5637 32.7313 26.5637 32.9385C26.5637 33.1457 26.4814 33.3444 26.3348 33.4909C26.1883 33.6375 25.9896 33.7198 25.7824 33.7198H2.04574L2.82701 35.2823H25.7824C25.9896 35.2823 26.1883 35.3646 26.3348 35.5112C26.4814 35.6577 26.5637 35.8564 26.5637 36.0636C26.5637 36.2708 26.4814 36.4695 26.3348 36.616C26.1883 36.7626 25.9896 36.8449 25.7824 36.8449Z" fill="white"/>
<path d="M37.5015 36.8448H29.6888C29.0671 36.8448 28.471 36.5979 28.0314 36.1584C27.5919 35.7188 27.3449 35.1226 27.3449 34.501V18.0943C27.3449 16.3989 27.609 14.0316 29.8942 13.0597C30.2999 12.9092 30.6486 12.636 30.8918 12.2781C31.135 11.9202 31.2607 11.4954 31.2513 11.0628V2.4688C31.2513 2.05438 31.4159 1.65694 31.709 1.36391C32.002 1.07088 32.3994 0.90625 32.8139 0.90625H34.3764C34.7908 0.90625 35.1883 1.07088 35.4813 1.36391C35.7743 1.65694 35.9389 2.05438 35.9389 2.4688V11.0628C35.9296 11.4954 36.0553 11.9202 36.2985 12.2781C36.5417 12.636 36.8904 12.9092 37.296 13.0597C39.5812 14.0316 39.8453 16.3989 39.8453 18.0943V34.501C39.8453 35.1226 39.5984 35.7188 39.1588 36.1584C38.7193 36.5979 38.1231 36.8448 37.5015 36.8448ZM32.8139 2.4688V11.0628C32.8223 11.802 32.6061 12.5264 32.1941 13.1402C31.782 13.754 31.1934 14.2283 30.506 14.5004C29.3856 14.9739 28.9075 16.0497 28.9075 18.0943V34.501C28.9075 34.7082 28.9898 34.9069 29.1363 35.0535C29.2828 35.2 29.4816 35.2823 29.6888 35.2823H37.5015C37.7087 35.2823 37.9074 35.2 38.0539 35.0535C38.2005 34.9069 38.2828 34.7082 38.2828 34.501V18.0943C38.2828 16.0497 37.8046 14.9739 36.6843 14.5004C35.9969 14.2283 35.4083 13.754 34.9962 13.1402C34.5841 12.5264 34.368 11.802 34.3764 11.0628V2.4688H32.8139Z" fill="white"/>
<path d="M34.5 6H32.5C32.3674 6 32.2402 5.78929 32.1464 5.41421C32.0527 5.03914 32 4.53043 32 4C32 3.46957 32.0527 2.96086 32.1464 2.58579C32.2402 2.21071 32.3674 2 32.5 2H34.5C34.6326 2 34.7598 2.21071 34.8536 2.58579C34.9473 2.96086 35 3.46957 35 4C35 4.53043 34.9473 5.03914 34.8536 5.41421C34.7598 5.78929 34.6326 6 34.5 6Z" fill="white"/>
<path d="M35.939 32.1572H31.2513C31.0441 32.1572 30.8454 32.0749 30.6989 31.9283C30.5524 31.7818 30.4701 31.5831 30.4701 31.3759V18.8755C30.4701 18.6683 30.5524 18.4696 30.6989 18.3231C30.8454 18.1766 31.0441 18.0942 31.2513 18.0942H35.939C36.1462 18.0942 36.3449 18.1766 36.4914 18.3231C36.6379 18.4696 36.7202 18.6683 36.7202 18.8755V31.3759C36.7202 31.5831 36.6379 31.7818 36.4914 31.9283C36.3449 32.0749 36.1462 32.1572 35.939 32.1572Z" fill="white"/>
<path d="M43.7517 32.1572C42.8676 32.1595 41.9892 32.0151 41.1524 31.7298C40.9628 31.6574 40.8089 31.5141 40.7231 31.3301C40.6373 31.1462 40.6265 30.9361 40.6929 30.7443C40.7593 30.5526 40.8977 30.3941 41.0788 30.3026C41.26 30.2111 41.4696 30.1937 41.6634 30.254C42.3359 30.482 43.0416 30.5971 43.7517 30.5946C44.533 30.5946 48.4394 30.4063 48.4394 26.6882C48.4394 23.6475 46.3917 20.5943 45.7049 19.6568H41.4079C41.2007 19.6568 41.002 19.5745 40.8555 19.428C40.7089 19.2814 40.6266 19.0827 40.6266 18.8755C40.6266 18.6683 40.7089 18.4696 40.8555 18.3231C41.002 18.1766 41.2007 18.0942 41.4079 18.0942H46.0955C46.2119 18.0943 46.3268 18.1203 46.4319 18.1705C46.5369 18.2206 46.6294 18.2936 46.7026 18.3841C46.8378 18.5505 50.0019 22.51 50.0019 26.6882C50.0019 30.4665 46.8628 32.1572 43.7517 32.1572Z" fill="white"/>
<path d="M43.7517 36.8448C43.5445 36.8448 43.3458 36.7625 43.1993 36.616C43.0528 36.4694 42.9704 36.2707 42.9704 36.0635V31.3759C42.9704 31.1687 43.0528 30.97 43.1993 30.8234C43.3458 30.6769 43.5445 30.5946 43.7517 30.5946C43.9589 30.5946 44.1576 30.6769 44.3042 30.8234C44.4507 30.97 44.533 31.1687 44.533 31.3759V36.0635C44.533 36.2707 44.4507 36.4694 44.3042 36.616C44.1576 36.7625 43.9589 36.8448 43.7517 36.8448Z" fill="white"/>
<path d="M46.0955 36.8449H41.4079C41.2007 36.8449 41.002 36.7626 40.8555 36.6161C40.7089 36.4695 40.6266 36.2708 40.6266 36.0636C40.6266 35.8564 40.7089 35.6577 40.8555 35.5112C41.002 35.3647 41.2007 35.2823 41.4079 35.2823H46.0955C46.3028 35.2823 46.5015 35.3647 46.648 35.5112C46.7945 35.6577 46.8768 35.8564 46.8768 36.0636C46.8768 36.2708 46.7945 36.4695 46.648 36.6161C46.5015 36.7626 46.3028 36.8449 46.0955 36.8449Z" fill="white"/>
<path d="M48.2727 31H41.7273C41.5344 31 41.3494 30.6313 41.213 29.9749C41.0766 29.3185 41 28.4283 41 27.5C41 26.5717 41.0766 25.6815 41.213 25.0251C41.3494 24.3687 41.5344 24 41.7273 24H48.2727C48.4656 24 48.6506 24.3687 48.787 25.0251C48.9234 25.6815 49 26.5717 49 27.5C49 28.4283 48.9234 29.3185 48.787 29.9749C48.6506 30.6313 48.4656 31 48.2727 31Z" fill="white"/>
<path d="M4.688 33.7198C4.48079 33.7198 4.28207 33.6375 4.13556 33.491C3.98904 33.3444 3.90673 33.1457 3.90673 32.9385C3.90673 25.1844 10.9163 18.8756 19.5322 18.8756C21.7796 18.8677 24.0062 19.3067 26.0824 20.167C26.2686 20.25 26.415 20.4024 26.4904 20.5918C26.5658 20.7812 26.5641 20.9926 26.4858 21.1808C26.4075 21.369 26.2588 21.5192 26.0713 21.5992C25.8838 21.6793 25.6725 21.6829 25.4824 21.6093C23.5961 20.8288 21.5736 20.4308 19.5322 20.4381C11.7781 20.4381 5.46927 26.0461 5.46927 32.9385C5.46927 33.1457 5.38696 33.3444 5.24044 33.491C5.09393 33.6375 4.89521 33.7198 4.688 33.7198Z" fill="white"/>
<path d="M19.5322 20.4381C19.0687 20.4381 18.6155 20.3007 18.2301 20.0431C17.8446 19.7856 17.5442 19.4195 17.3668 18.9913C17.1894 18.563 17.143 18.0917 17.2335 17.6371C17.3239 17.1824 17.5471 16.7648 17.8749 16.437C18.2027 16.1092 18.6203 15.886 19.075 15.7955C19.5296 15.7051 20.0009 15.7515 20.4292 15.9289C20.8575 16.1063 21.2235 16.4067 21.4811 16.7922C21.7386 17.1776 21.8761 17.6307 21.8761 18.0943C21.8761 18.7159 21.6291 19.3121 21.1896 19.7516C20.75 20.1912 20.1539 20.4381 19.5322 20.4381Z" fill="white"/>
</g>
</svg>
