<svg width="30" height="36" viewBox="0 0 30 36" fill="none" xmlns="http://www.w3.org/2000/svg">
<g opacity="0.8">
<path d="M8.25396 23.1108C8.10802 23.1108 7.96806 23.0528 7.86486 22.9496C7.76167 22.8464 7.7037 22.7064 7.7037 22.5605C7.7037 20.4695 9.67142 19.8246 11.408 19.254C13.2123 18.6625 14.3068 18.219 14.3068 17.0579C14.3068 15.5519 14.1026 15.4039 12.5157 14.2516C11.1554 13.2808 9.84851 12.2372 8.60062 11.1256C4.45003 7.44277 4.40216 0.829787 4.40216 0.550256C4.40216 0.404319 4.46013 0.264359 4.56333 0.161166C4.66652 0.0579733 4.80648 0 4.95242 0C5.09835 0 5.23831 0.0579733 5.34151 0.161166C5.4447 0.264359 5.50267 0.404319 5.50267 0.550256C5.50267 0.614086 5.5577 6.95249 9.33136 10.303C10.5527 11.3904 11.8315 12.4115 13.1622 13.3619C14.8422 14.5818 15.4073 14.9912 15.4073 17.0579C15.4073 19.0988 13.4649 19.7371 11.7508 20.3001C9.91793 20.9026 8.80421 21.3554 8.80421 22.5605C8.80421 22.7064 8.74624 22.8464 8.64305 22.9496C8.53985 23.0528 8.39989 23.1108 8.25396 23.1108Z" fill="white"/>
<path d="M5.50258 18.7087C5.40318 18.7085 5.3057 18.6813 5.22048 18.6302C5.13527 18.579 5.06551 18.5057 5.01861 18.418C4.97172 18.3304 4.94944 18.2317 4.95414 18.1324C4.95884 18.0331 4.99035 17.9369 5.04532 17.8541C5.09649 17.776 6.33071 15.9574 8.25386 15.9574C10.0422 15.9574 10.7251 16.55 10.8439 16.6689C10.9474 16.7707 11.0064 16.9094 11.0081 17.0546C11.0098 17.1998 10.954 17.3397 10.853 17.444C10.7519 17.5482 10.6137 17.6083 10.4686 17.6111C10.3234 17.614 10.183 17.5593 10.078 17.459C10.0477 17.4343 9.56182 17.0579 8.25386 17.0579C6.92444 17.0579 5.96865 18.4512 5.95929 18.4649C5.909 18.5399 5.84104 18.6014 5.76139 18.6439C5.68175 18.6864 5.59286 18.7086 5.50258 18.7087Z" fill="white"/>
<path d="M3.85183 22.0103C0.644939 22.0103 0.0281022 16.79 0.00334062 16.5682C-0.0128584 16.4232 0.0292315 16.2776 0.120351 16.1636C0.21147 16.0495 0.344155 15.9764 0.489217 15.9602C0.634278 15.944 0.779834 15.9861 0.893862 16.0772C1.00789 16.1683 1.08105 16.301 1.09725 16.4461C1.10055 16.4912 1.66071 20.9097 3.85183 20.9097C5.08881 20.9097 5.29351 20.5796 5.53012 20.1944C5.67536 19.8934 5.90792 19.6432 6.19747 19.4763C6.48702 19.3095 6.82014 19.2337 7.15337 19.259C7.29931 19.259 7.43927 19.3169 7.54246 19.4201C7.64566 19.5233 7.70363 19.6633 7.70363 19.8092C7.70363 19.9552 7.64566 20.0951 7.54246 20.1983C7.43927 20.3015 7.29931 20.3595 7.15337 20.3595C6.72197 20.3595 6.66254 20.4552 6.46665 20.7727C6.06386 21.4259 5.56148 22.0103 3.85183 22.0103Z" fill="white"/>
<path d="M21.3028 35.2164C20.6429 35.2157 19.9902 35.0803 19.3846 34.8182C18.779 34.5562 18.2333 34.1732 17.7811 33.6927C14.4025 30.3147 13.2619 24.4253 13.214 24.1766C13.1975 24.0886 13.2027 23.9979 13.2291 23.9123C13.2556 23.8268 13.3025 23.749 13.3659 23.6857L18.1811 18.8705C18.2446 18.8074 18.3225 18.7607 18.4079 18.7343C18.4934 18.7078 18.584 18.7024 18.672 18.7186C18.9212 18.7654 24.8101 19.906 28.1881 23.2857C31.346 26.4431 28.9178 30.5568 26.9847 32.4904C25.7285 33.7477 23.5445 35.2164 21.3028 35.2164ZM14.3574 24.2525C14.6248 25.4477 15.8228 30.1777 18.5603 32.9146C21.6918 36.0467 25.7554 32.1635 26.2088 31.7112C26.6623 31.2589 30.5438 27.1942 27.4123 24.0627C24.6709 21.3207 19.9447 20.1261 18.7507 19.8593L14.3574 24.2525Z" fill="white"/>
<path d="M28.8478 34.9005C28.7019 34.9005 28.562 34.8425 28.4588 34.7393L26.2088 32.4893C26.1086 32.3855 26.0531 32.2465 26.0544 32.1022C26.0556 31.958 26.1135 31.82 26.2155 31.7179C26.3175 31.6159 26.4556 31.558 26.5998 31.5568C26.7441 31.5555 26.8831 31.611 26.9869 31.7112L29.2369 33.9612C29.3138 34.0382 29.3662 34.1362 29.3874 34.2429C29.4086 34.3497 29.3977 34.4603 29.3561 34.5608C29.3145 34.6613 29.244 34.7473 29.1535 34.8077C29.063 34.8682 28.9567 34.9005 28.8478 34.9005Z" fill="white"/>
<path d="M14.5 27H29L22 34.5L17.5 33L14.5 27Z" fill="white"/>
</g>
</svg>
