<svg width="21" height="22" viewBox="0 0 21 22" fill="none" xmlns="http://www.w3.org/2000/svg">
<path d="M17.991 9.1546L10.4726 3.8023L2.95424 9.1546C2.11244 9.75387 0.945297 9.15204 0.945297 8.11873V7.68495L10.4727 0.902466L20 7.68495V8.11873C20 9.15204 18.8328 9.75387 17.991 9.1546Z" fill="white" stroke="white" stroke-miterlimit="10"/>
<path d="M2.95409 20.7286V9.15454" stroke="white" stroke-miterlimit="10"/>
<path d="M17.9909 9.15454V20.7286" stroke="white" stroke-miterlimit="10"/>
<path d="M2.95409 15.7701H17.9909" stroke="white" stroke-miterlimit="10"/>
<path d="M17.9909 9.15454H2.95409" stroke="white" stroke-miterlimit="10"/>
<path d="M10.4725 9.15454V10.6837" stroke="white" stroke-miterlimit="10"/>
<path d="M12.9581 9.15454V10.6837" stroke="white" stroke-miterlimit="10"/>
<path d="M15.4436 9.15454V10.6837" stroke="white" stroke-miterlimit="10"/>
<path d="M7.98694 9.15454V10.6837" stroke="white" stroke-miterlimit="10"/>
<path d="M7.98694 15.7701V13.2845H12.958V15.7701" stroke="white" stroke-miterlimit="10"/>
<path d="M5.50139 9.15454V10.6837" stroke="white" stroke-miterlimit="10"/>
<path d="M15.4436 13.8267V15.77" stroke="white" stroke-miterlimit="10"/>
<path d="M5.50139 13.8267V15.77" stroke="white" stroke-miterlimit="10"/>
<path d="M10.4725 13.2845V15.7701" stroke="white" stroke-miterlimit="10"/>
<path d="M0.945129 20.7286H19.9998" stroke="white" stroke-miterlimit="10"/>
<path d="M8.66368 18.2494H12.2813" stroke="white" stroke-miterlimit="10"/>
<rect x="2.99982" y="16" width="3" height="5" fill="white"/>
<rect x="14.9998" y="16" width="3" height="5" fill="white"/>
</svg>
