<svg width="18" height="21" viewBox="0 0 18 21" fill="none" xmlns="http://www.w3.org/2000/svg">
<path d="M3.25249 6.10852L5.05388 6.5912" stroke="white" stroke-width="1.5" stroke-linecap="round" stroke-linejoin="round"/>
<path d="M8.65665 7.55652L10.458 8.0392" stroke="white" stroke-width="1.5" stroke-linecap="round" stroke-linejoin="round"/>
<path d="M14.0608 9.00464L15.8622 9.48732" stroke="white" stroke-width="1.5" stroke-linecap="round" stroke-linejoin="round"/>
<path d="M0.839085 15.1155L4.21785 2.50574C4.34587 2.02798 4.65843 1.62065 5.08678 1.37334C5.51512 1.12603 6.02417 1.05902 6.50193 1.18703L9.20401 1.91105C9.076 2.38881 9.14302 2.89786 9.39032 3.3262C9.63763 3.75455 10.045 4.06711 10.5227 4.19513C11.0005 4.32314 11.5095 4.25612 11.9379 4.00882C12.3662 3.76151 12.6788 3.35417 12.8068 2.87642L15.5089 3.60044C15.9866 3.72845 16.394 4.04101 16.6413 4.46936C16.8886 4.89771 16.9556 5.40675 16.8276 5.88451L13.4488 18.4942C13.3208 18.972 13.0082 19.3793 12.5799 19.6267C12.1516 19.874 11.6425 19.941 11.1648 19.813L8.46266 19.0889C8.59068 18.6112 8.52366 18.1021 8.27636 17.6738C8.02905 17.2454 7.62171 16.9329 7.14395 16.8049C6.6662 16.6768 6.15715 16.7439 5.7288 16.9912C5.30046 17.2385 4.9879 17.6458 4.85988 18.1236L2.15779 17.3996C1.68004 17.2715 1.2727 16.959 1.02539 16.5306C0.778087 16.1023 0.71107 15.5932 0.839085 15.1155Z" stroke="white" stroke-width="1.5" stroke-linecap="round" stroke-linejoin="round"/>
</svg>
