<svg width="20" height="20" viewBox="0 0 13 17" fill="none" xmlns="http://www.w3.org/2000/svg">
<path d="M0.666626 6L2.33329 6" stroke="#7E1625" stroke-linecap="round" stroke-linejoin="round"/>
<path d="M5.66663 6L7.33329 6" stroke="#7E1625" stroke-linecap="round" stroke-linejoin="round"/>
<path d="M10.6666 6L12.3333 6" stroke="#7E1625" stroke-linecap="round" stroke-linejoin="round"/>
<path d="M0.666626 14.3333L0.666625 2.66667C0.666625 2.22464 0.84222 1.80072 1.15478 1.48815C1.46734 1.17559 1.89126 0.999999 2.33329 0.999999L4.83329 0.999999C4.83329 1.44203 5.00889 1.86595 5.32145 2.17851C5.63401 2.49107 6.05793 2.66667 6.49996 2.66667C6.94199 2.66667 7.36591 2.49107 7.67847 2.17851C7.99103 1.86595 8.16663 1.44203 8.16663 0.999999L10.6666 0.999999C11.1087 0.999999 11.5326 1.17559 11.8451 1.48815C12.1577 1.80072 12.3333 2.22464 12.3333 2.66667L12.3333 14.3333C12.3333 14.7754 12.1577 15.1993 11.8451 15.5118C11.5326 15.8244 11.1087 16 10.6666 16L8.16663 16C8.16663 15.558 7.99103 15.134 7.67847 14.8215C7.36591 14.5089 6.94199 14.3333 6.49996 14.3333C6.05793 14.3333 5.63401 14.5089 5.32145 14.8215C5.00889 15.134 4.83329 15.558 4.83329 16L2.33329 16C1.89127 16 1.46734 15.8244 1.15478 15.5118C0.842221 15.1993 0.666626 14.7754 0.666626 14.3333Z" stroke="#7E1625" stroke-linecap="round" stroke-linejoin="round"/>
<path d="M2 14.8889L2 7.11111C2 6.81643 2.13546 6.53381 2.37658 6.32544C2.61769 6.11706 2.94472 6 3.28571 6L5.21429 6C5.21429 6.29468 5.34974 6.5773 5.59086 6.78567C5.83198 6.99405 6.15901 7.11111 6.5 7.11111C6.84099 7.11111 7.16802 6.99405 7.40914 6.78567C7.65025 6.5773 7.78571 6.29468 7.78571 6L9.71429 6C10.0553 6 10.3823 6.11706 10.6234 6.32544C10.8645 6.53381 11 6.81642 11 7.11111L11 14.8889C11 15.1836 10.8645 15.4662 10.6234 15.6746C10.3823 15.8829 10.0553 16 9.71429 16L7.78571 16C7.78571 15.7053 7.65026 15.4227 7.40914 15.2143C7.16802 15.006 6.84099 14.8889 6.5 14.8889C6.15901 14.8889 5.83198 15.006 5.59086 15.2143C5.34974 15.4227 5.21429 15.7053 5.21429 16L3.28571 16C2.94472 16 2.6177 15.8829 2.37658 15.6746C2.13546 15.4662 2 15.1836 2 14.8889Z" fill="#7E1625" fill-opacity="0.1"/>
</svg>
