<svg width="20" height="20" viewBox="0 0 15 18" fill="none" xmlns="http://www.w3.org/2000/svg">
<path d="M1.30606 6.70264H3.171" stroke="white" stroke-width="1.5" stroke-linecap="round" stroke-linejoin="round"/>
<path d="M6.90086 6.70264H8.76579" stroke="white" stroke-width="1.5" stroke-linecap="round" stroke-linejoin="round"/>
<path d="M12.4957 6.70264H14.3606" stroke="white" stroke-width="1.5" stroke-linecap="round" stroke-linejoin="round"/>
<path d="M1.30606 16.0273V2.97271C1.30606 2.4781 1.50254 2.00375 1.85228 1.654C2.20203 1.30426 2.67638 1.10778 3.17099 1.10778H5.9684C5.9684 1.60239 6.16489 2.07674 6.51463 2.42648C6.86437 2.77623 7.33873 2.97271 7.83334 2.97271C8.32795 2.97271 8.8023 2.77623 9.15205 2.42648C9.50179 2.07674 9.69828 1.60239 9.69828 1.10778H12.4957C12.9903 1.10778 13.4646 1.30426 13.8144 1.654C14.1641 2.00375 14.3606 2.4781 14.3606 2.97271V16.0273C14.3606 16.5219 14.1641 16.9962 13.8144 17.346C13.4646 17.6957 12.9903 17.8922 12.4957 17.8922H9.69828C9.69828 17.3976 9.50179 16.9232 9.15205 16.5735C8.8023 16.2238 8.32795 16.0273 7.83334 16.0273C7.33873 16.0273 6.86437 16.2238 6.51463 16.5735C6.16489 16.9232 5.9684 17.3976 5.9684 17.8922H3.17099C2.67638 17.8922 2.20203 17.6957 1.85228 17.346C1.50254 16.9962 1.30606 16.5219 1.30606 16.0273Z" stroke="white" stroke-width="1.5" stroke-linecap="round"  stroke-linejoin="round"/>
<path d="M2 14.8889L2 7.11111C2 6.81643 2.13546 6.53381 2.37658 6.32544C2.61769 6.11706 2.94472 6 3.28571 6L5.21429 6C5.21429 6.29468 5.34974 6.5773 5.59086 6.78567C5.83198 6.99405 6.15901 7.11111 6.5 7.11111C6.84099 7.11111 7.16802 6.99405 7.40914 6.78567C7.65025 6.5773 7.78571 6.29468 7.78571 6L9.71429 6C10.0553 6 10.3823 6.11706 10.6234 6.32544C10.8645 6.53381 11 6.81642 11 7.11111L11 14.8889C11 15.1836 10.8645 15.4662 10.6234 15.6746C10.3823 15.8829 10.0553 16 9.71429 16L7.78571 16C7.78571 15.7053 7.65026 15.4227 7.40914 15.2143C7.16802 15.006 6.84099 14.8889 6.5 14.8889C6.15901 14.8889 5.83198 15.006 5.59086 15.2143C5.34974 15.4227 5.21429 15.7053 5.21429 16L3.28571 16C2.94472 16 2.6177 15.8829 2.37658 15.6746C2.13546 15.4662 2 15.1836 2 14.8889Z" fill="white" fill-opacity="0.1"/>
</svg>
