<svg width="152" height="4" viewBox="0 0 152 4" fill="none" xmlns="http://www.w3.org/2000/svg">
<path d="M0 1.01174C1.97389 1.01174 3.04 1.68554 3.895 2.21574C4.62333 2.66862 5.14056 3 6.33333 3C7.52611 3 8.04333 2.66862 8.76111 2.21574C9.37333 1.82913 10.0911 1.37625 11.1783 1.15533C11.6744 1.05592 12.1706 1.01174 12.6667 1.01174C13.2261 1.01174 13.7856 1.06697 14.3344 1.19952C15.3161 1.43148 15.9917 1.86227 16.5617 2.21574C17.29 2.66862 17.8072 3 19 3C20.1928 3 20.71 2.66862 21.4383 2.21574C21.9978 1.82913 22.61 1.53089 23.2539 1.30998C23.9294 1.1001 24.6367 1.00069 25.3439 1.00069C26.1144 0.989644 26.8744 1.11115 27.6028 1.36521C28.1833 1.58612 28.7322 1.86227 29.2494 2.21574C29.9567 2.66862 30.4739 3 31.6667 3C32.8594 3 33.3767 2.66862 34.105 2.21574C34.5378 1.92855 35.0022 1.67449 35.4772 1.47566C36.2794 1.15533 37.145 1.00069 38 1.01174C39.1611 1.01174 40.0056 1.2437 40.6811 1.54194C41.1033 1.74077 41.5044 1.96168 41.895 2.21574C42.6233 2.66862 43.1406 3 44.3333 3C45.5261 3 46.0433 2.66862 46.7717 2.21574C47.0989 2.00587 47.4367 1.80704 47.785 1.63031C48.4922 1.28788 49.3894 1.01174 50.6667 1.01174C52.0389 1.01174 52.9783 1.33207 53.7067 1.71867C54.0233 1.88436 54.3083 2.0611 54.5617 2.22679C55.29 2.66862 55.8072 3 57 3C58.1928 3 58.71 2.66862 59.4383 2.21574C59.66 2.08319 59.8817 1.93959 60.135 1.796C60.8844 1.3873 61.8556 1.01174 63.3333 1.01174C64.9167 1.01174 65.9089 1.44253 66.6794 1.88436C66.8694 1.99482 67.0595 2.10528 67.2283 2.21574C67.9567 2.66862 68.4739 3 69.6667 3C70.8594 3 71.3767 2.66862 72.105 2.21574C72.2422 2.12737 72.3794 2.05005 72.5272 1.96168C73.3189 1.48671 74.3428 1.01174 76.0106 1.01174C77.7944 1.01174 78.8289 1.55299 79.6417 2.05005C79.7367 2.10528 79.8211 2.16051 79.9056 2.21574C80.6233 2.66862 81.1406 3 82.3333 3C83.5261 3 84.0433 2.66862 84.7717 2.21574C84.8244 2.1826 84.8772 2.14946 84.93 2.11633C85.7533 1.60822 86.8089 1.01174 88.6667 1.01174C90.6406 1.01174 91.7067 1.68554 92.5617 2.21574H92.5722C93.29 2.66862 93.8178 2.98895 95 2.98895C96.1822 2.98895 96.6572 2.69071 97.3222 2.27097L97.4278 2.20469C98.2933 1.68554 99.3594 1.01174 101.333 1.01174C103.307 1.01174 104.373 1.68554 105.228 2.21574C105.323 2.27097 105.418 2.33725 105.503 2.39247C106.094 2.75699 106.622 3 107.656 3C108.691 3 109.166 2.77908 109.714 2.4477C109.831 2.38143 109.957 2.30411 110.084 2.21574C110.96 1.68554 112.026 1.01174 114 1.01174C115.974 1.01174 117.04 1.68554 117.895 2.21574C118.096 2.33725 118.275 2.45875 118.465 2.55816C118.951 2.82327 119.468 3 120.323 3C121.178 3 121.632 2.84536 122.096 2.61339C122.318 2.50293 122.529 2.37038 122.761 2.22679C123.627 1.68554 124.693 1.01174 126.667 1.01174C128.641 1.01174 129.707 1.68554 130.562 2.21574C130.857 2.41457 131.163 2.58026 131.48 2.72385C131.966 2.92268 132.472 3.01105 132.989 2.98895C133.475 3 133.95 2.92268 134.404 2.75699C134.763 2.60235 135.101 2.42561 135.428 2.20469C136.293 1.68554 137.359 1.01174 139.333 1.01174C141.307 1.01174 142.373 1.68554 143.228 2.21574C143.714 2.52503 144.115 2.76804 144.696 2.90059C145.012 2.96686 145.339 3 145.667 3C145.952 3 146.237 2.97791 146.522 2.93372C147.166 2.81222 147.577 2.54712 148.105 2.22679C148.96 1.68554 150.026 1.01174 152 1.01174" stroke="#7E1625" stroke-miterlimit="10"/>
</svg>
