<svg width="28" height="35" viewBox="0 0 28 35" fill="none" xmlns="http://www.w3.org/2000/svg">
<g opacity="0.8">
<path d="M10.3075 35H1.62751C1.19587 35 0.781905 34.8286 0.476688 34.5234C0.171472 34.2181 2.78937e-06 33.8042 2.78937e-06 33.3725V14.9275C-0.000902791 14.1807 0.218711 13.4504 0.631297 12.828C1.04388 12.2056 1.63107 11.7188 2.3192 11.4289C2.60524 11.2936 2.8459 11.0782 3.012 10.8089C3.17811 10.5396 3.26252 10.2278 3.25502 9.91149V1.90741C3.25502 1.47577 3.42648 1.06181 3.7317 0.756593C4.03692 0.451376 4.45088 0.279907 4.88252 0.279907L7.05253 0.279907C7.48417 0.279907 7.89813 0.451376 8.20335 0.756593C8.50857 1.06181 8.68004 1.47577 8.68004 1.90741V9.91149C8.67221 10.2281 8.75648 10.5402 8.9226 10.8098C9.08872 11.0795 9.32955 11.2951 9.61585 11.4305C10.3037 11.7204 10.8907 12.2068 11.3033 12.8289C11.7159 13.451 11.9356 14.181 11.935 14.9275V33.3725C11.935 33.8042 11.7636 34.2181 11.4584 34.5234C11.1531 34.8286 10.7392 35 10.3075 35ZM4.88252 1.36491C4.73864 1.36491 4.60065 1.42207 4.49891 1.52381C4.39718 1.62555 4.34002 1.76353 4.34002 1.90741V9.91149C4.35062 10.4417 4.20466 10.9632 3.92039 11.4108C3.63612 11.8584 3.22616 12.2123 2.74181 12.4282C2.25023 12.6353 1.83076 12.983 1.53602 13.4276C1.24128 13.8723 1.08438 14.394 1.08501 14.9275V33.3725C1.08501 33.5164 1.14216 33.6544 1.2439 33.7561C1.34564 33.8579 1.48363 33.915 1.62751 33.915H10.3075C10.4514 33.915 10.5894 33.8579 10.6912 33.7561C10.7929 33.6544 10.85 33.5164 10.85 33.3725V14.9275C10.8507 14.394 10.6938 13.8723 10.399 13.4276C10.1043 12.983 9.68482 12.6353 9.19324 12.4282C8.70889 12.2123 8.29894 11.8584 8.01467 11.4108C7.7304 10.9632 7.58443 10.4417 7.59503 9.91149V1.90741C7.59503 1.76353 7.53788 1.62555 7.43614 1.52381C7.3344 1.42207 7.19641 1.36491 7.05253 1.36491H4.88252Z" fill="white"/>
<path d="M9.22257 31.2025H2.71255C2.56867 31.2025 2.43068 31.1454 2.32894 31.0436C2.2272 30.9419 2.17004 30.8039 2.17004 30.66V16.555C2.17004 16.4111 2.2272 16.2731 2.32894 16.1713C2.43068 16.0696 2.56867 16.0125 2.71255 16.0125H9.22257C9.36645 16.0125 9.50444 16.0696 9.60618 16.1713C9.70792 16.2731 9.76507 16.4111 9.76507 16.555V30.66C9.76507 30.8039 9.70792 30.9419 9.60618 31.0436C9.50444 31.1454 9.36645 31.2025 9.22257 31.2025ZM3.25505 30.1175H8.68007V17.0975H3.25505V30.1175Z" fill="white"/>
<path d="M10.3075 35H1.62751C1.19587 35 0.781905 34.8286 0.476688 34.5234C0.171472 34.2181 2.78937e-06 33.8042 2.78937e-06 33.3725V14.9275C-0.000902791 14.1807 0.218711 13.4504 0.631297 12.828C1.04388 12.2056 1.63107 11.7188 2.3192 11.4289C2.60524 11.2936 2.8459 11.0782 3.012 10.8089C3.17811 10.5396 3.26252 10.2278 3.25502 9.91149V1.90741C3.25502 1.47577 3.42648 1.06181 3.7317 0.756593C4.03692 0.451376 4.45088 0.279907 4.88252 0.279907L7.05253 0.279907C7.48417 0.279907 7.89813 0.451376 8.20335 0.756593C8.50857 1.06181 8.68004 1.47577 8.68004 1.90741V9.91149C8.67221 10.2281 8.75648 10.5402 8.9226 10.8098C9.08872 11.0795 9.32955 11.2951 9.61585 11.4305C10.3037 11.7204 10.8907 12.2068 11.3033 12.8289C11.7159 13.451 11.9356 14.181 11.935 14.9275V33.3725C11.935 33.8042 11.7636 34.2181 11.4584 34.5234C11.1531 34.8286 10.7392 35 10.3075 35ZM4.88252 1.36491C4.73864 1.36491 4.60065 1.42207 4.49891 1.52381C4.39718 1.62555 4.34002 1.76353 4.34002 1.90741V9.91149C4.35062 10.4417 4.20466 10.9632 3.92039 11.4108C3.63612 11.8584 3.22616 12.2123 2.74181 12.4282C2.25023 12.6353 1.83076 12.983 1.53602 13.4276C1.24128 13.8723 1.08438 14.394 1.08501 14.9275V33.3725C1.08501 33.5164 1.14216 33.6544 1.2439 33.7561C1.34564 33.8579 1.48363 33.915 1.62751 33.915H10.3075C10.4514 33.915 10.5894 33.8579 10.6912 33.7561C10.7929 33.6544 10.85 33.5164 10.85 33.3725V14.9275C10.8507 14.394 10.6938 13.8723 10.399 13.4276C10.1043 12.983 9.68482 12.6353 9.19324 12.4282C8.70889 12.2123 8.29894 11.8584 8.01467 11.4108C7.7304 10.9632 7.58443 10.4417 7.59503 9.91149V1.90741C7.59503 1.76353 7.53788 1.62555 7.43614 1.52381C7.3344 1.42207 7.19641 1.36491 7.05253 1.36491H4.88252Z" fill="white"/>
<path d="M9.22257 31.2025H2.71255C2.56867 31.2025 2.43068 31.1454 2.32894 31.0436C2.2272 30.9419 2.17004 30.8039 2.17004 30.66V16.555C2.17004 16.4111 2.2272 16.2731 2.32894 16.1713C2.43068 16.0696 2.56867 16.0125 2.71255 16.0125H9.22257C9.36645 16.0125 9.50444 16.0696 9.60618 16.1713C9.70792 16.2731 9.76507 16.4111 9.76507 16.555V30.66C9.76507 30.8039 9.70792 30.9419 9.60618 31.0436C9.50444 31.1454 9.36645 31.2025 9.22257 31.2025Z" fill="white"/>
<path d="M7.6 5H4.4C4.29391 5 4.19217 4.78929 4.11716 4.41421C4.04214 4.03914 4 3.53043 4 3C4 2.46957 4.04214 1.96086 4.11716 1.58579C4.19217 1.21071 4.29391 1 4.4 1H7.6C7.70609 1 7.80783 1.21071 7.88284 1.58579C7.95786 1.96086 8 2.46957 8 3C8 3.53043 7.95786 4.03914 7.88284 4.41421C7.80783 4.78929 7.70609 5 7.6 5Z" fill="white"/>
<path d="M13.2159 34.2432C13.1356 34.2432 13.0531 34.24 12.9745 34.2329C12.9033 34.2272 12.834 34.2075 12.7705 34.1749C12.707 34.1423 12.6506 34.0975 12.6044 34.0431C12.5583 33.9887 12.5233 33.9257 12.5015 33.8577C12.4797 33.7897 12.4716 33.7181 12.4775 33.647C12.4828 33.5757 12.5022 33.5062 12.5347 33.4425C12.5671 33.3788 12.612 33.3222 12.6666 33.2761C12.7212 33.2299 12.7845 33.1952 12.8528 33.1738C12.921 33.1525 12.9928 33.145 13.064 33.1517C13.3091 33.1745 13.5563 33.1445 13.7889 33.0636C14.0214 32.9828 14.234 32.853 14.4121 32.683C14.5654 32.539 14.6875 32.3651 14.771 32.172C14.8545 31.979 14.8976 31.7709 14.8976 31.5606C14.8976 31.3502 14.8545 31.1421 14.771 30.9491C14.6875 30.756 14.5654 30.5821 14.4121 30.4381C14.2334 30.269 14.0208 30.1397 13.7884 30.0588C13.556 29.9779 13.3091 29.9473 13.064 29.9689C12.993 29.9748 12.9215 29.9668 12.8536 29.9451C12.7857 29.9235 12.7228 29.8887 12.6684 29.8427C12.6139 29.7968 12.5691 29.7405 12.5364 29.6772C12.5037 29.6139 12.4838 29.5448 12.4778 29.4738C12.4718 29.4028 12.4799 29.3314 12.5015 29.2635C12.5232 29.1956 12.5579 29.1326 12.6039 29.0782C12.6499 29.0238 12.7061 28.9789 12.7694 28.9462C12.8327 28.9135 12.9018 28.8936 12.9728 28.8877C13.3717 28.8528 13.7735 28.9033 14.1514 29.0357C14.5293 29.1682 14.8747 29.3796 15.1645 29.6558C15.4231 29.9011 15.629 30.1965 15.7697 30.5239C15.9103 30.8513 15.9829 31.2039 15.9829 31.5603C15.9829 31.9167 15.9103 32.2693 15.7697 32.5967C15.629 32.9241 15.4231 33.2195 15.1645 33.4647C14.64 33.9663 13.9416 34.2453 13.2159 34.2432Z" fill="white"/>
<path d="M15.5769 29.8327C15.4687 29.8326 15.363 29.8002 15.2734 29.7396C15.1838 29.679 15.1144 29.593 15.074 29.4926C15.0337 29.3923 15.0242 29.2821 15.0469 29.1764C15.0696 29.0706 15.1235 28.974 15.2014 28.8991C15.3547 28.7551 15.4769 28.5813 15.5604 28.3883C15.6439 28.1953 15.6869 27.9872 15.6869 27.7769C15.6869 27.5666 15.6439 27.3586 15.5604 27.1656C15.4769 26.9726 15.3547 26.7987 15.2014 26.6548C14.9454 26.4128 14.6223 26.2538 14.2743 26.1987C13.9264 26.1436 13.5699 26.195 13.2517 26.3461C13.1215 26.4075 12.9723 26.4147 12.8369 26.3662C12.7014 26.3176 12.5908 26.2172 12.5293 26.087C12.4679 25.9569 12.4607 25.8077 12.5093 25.6722C12.5578 25.5367 12.6583 25.4261 12.7884 25.3647C13.3056 25.1206 13.8845 25.0385 14.4491 25.1291C15.0138 25.2197 15.5379 25.4788 15.9528 25.8725C16.2115 26.1176 16.4176 26.4129 16.5584 26.7404C16.6993 27.0678 16.7719 27.4205 16.7719 27.7769C16.7719 28.1334 16.6993 28.4861 16.5584 28.8135C16.4176 29.1409 16.2115 29.4362 15.9528 29.6814C15.8517 29.7785 15.717 29.8327 15.5769 29.8327Z" fill="white"/>
<path d="M17.1517 33.4837C16.4258 33.4874 15.7267 33.2095 15.2014 32.7085C15.15 32.6591 15.1088 32.6001 15.0802 32.5349C15.0516 32.4696 15.0361 32.3994 15.0347 32.3282C15.0332 32.2569 15.0458 32.1861 15.0717 32.1197C15.0976 32.0534 15.1364 31.9928 15.1857 31.9414C15.235 31.89 15.294 31.8488 15.3593 31.8202C15.4245 31.7916 15.4948 31.7761 15.566 31.7746C15.6372 31.7732 15.708 31.7857 15.7744 31.8117C15.8408 31.8376 15.9014 31.8763 15.9528 31.9256C16.2769 32.2317 16.7057 32.4022 17.1515 32.4022C17.5972 32.4022 18.026 32.2317 18.3501 31.9256C18.5034 31.7816 18.6255 31.6078 18.709 31.4148C18.7925 31.2218 18.8356 31.0137 18.8356 30.8035C18.8356 30.5932 18.7925 30.3851 18.709 30.1921C18.6255 29.9991 18.5034 29.8253 18.3501 29.6813C18.026 29.3752 17.5972 29.2048 17.1515 29.2048C16.7057 29.2048 16.2769 29.3752 15.9528 29.6813C15.7483 29.8764 15.6 30.1227 15.5231 30.3947C15.504 30.4633 15.4716 30.5275 15.4277 30.5836C15.3838 30.6398 15.3293 30.6867 15.2672 30.7217C15.2052 30.7567 15.1369 30.7792 15.0661 30.7878C14.9954 30.7965 14.9237 30.7911 14.855 30.772C14.7864 30.7529 14.7222 30.7205 14.6661 30.6766C14.61 30.6327 14.5631 30.5781 14.528 30.5161C14.493 30.4541 14.4705 30.3857 14.4619 30.315C14.4533 30.2443 14.4586 30.1725 14.4777 30.1039C14.6068 29.6447 14.8567 29.2286 15.2014 28.899C15.7287 28.4011 16.4265 28.1237 17.1517 28.1237C17.877 28.1237 18.5747 28.4011 19.102 28.899C19.3606 29.1442 19.5666 29.4396 19.7073 29.767C19.848 30.0944 19.9206 30.4471 19.9206 30.8035C19.9206 31.1598 19.848 31.5125 19.7073 31.8399C19.5666 32.1673 19.3606 32.4627 19.102 32.7079C18.5766 33.2089 17.8777 33.4869 17.1517 33.4837Z" fill="white"/>
<path d="M15.3664 26.6032C15.2342 26.6033 15.1064 26.5551 15.0072 26.4677C14.908 26.3803 14.8441 26.2596 14.8276 26.1285C14.8111 25.9973 14.8431 25.8646 14.9175 25.7553C14.9919 25.646 15.1037 25.5676 15.2318 25.535C15.5169 25.4629 15.7785 25.3185 15.9913 25.1156C16.1446 24.9716 16.2668 24.7977 16.3503 24.6047C16.4338 24.4116 16.4769 24.2035 16.4769 23.9932C16.4769 23.7829 16.4338 23.5747 16.3503 23.3817C16.2668 23.1887 16.1446 23.0148 15.9913 22.8707C15.6672 22.5648 15.2384 22.3944 14.7927 22.3944C14.347 22.3944 13.9182 22.5648 13.594 22.8707C13.3895 23.0657 13.2411 23.3121 13.1644 23.5841C13.1258 23.7228 13.0338 23.8404 12.9085 23.9112C12.7832 23.9819 12.6349 24 12.4963 23.9614C12.3576 23.9229 12.24 23.8308 12.1693 23.7055C12.0985 23.5803 12.0804 23.432 12.119 23.2934C12.2468 22.8344 12.4956 22.4183 12.8394 22.0885C13.3667 21.5905 14.0645 21.3131 14.7897 21.3131C15.5149 21.3131 16.2127 21.5905 16.74 22.0885C16.9988 22.3337 17.2048 22.629 17.3457 22.9565C17.4865 23.284 17.5591 23.6367 17.5591 23.9932C17.5591 24.3497 17.4865 24.7024 17.3457 25.0299C17.2048 25.3574 16.9988 25.6527 16.74 25.8979C16.3932 26.23 15.9666 26.4671 15.5015 26.5863C15.4573 26.5975 15.4119 26.6031 15.3664 26.6032Z" fill="white"/>
<path d="M18.515 29.6293C18.3831 29.6291 18.2558 29.5807 18.157 29.4934C18.0581 29.4061 17.9944 29.2858 17.9779 29.1549C17.9613 29.024 17.993 28.8916 18.067 28.7824C18.141 28.6733 18.2523 28.5948 18.3799 28.5617C18.6651 28.4893 18.9267 28.3444 19.1394 28.1412C19.2927 27.9972 19.4149 27.8233 19.4984 27.6303C19.5819 27.4372 19.625 27.2291 19.625 27.0188C19.625 26.8085 19.5819 26.6004 19.4984 26.4073C19.4149 26.2143 19.2927 26.0404 19.1394 25.8964C18.8153 25.5904 18.3865 25.42 17.9408 25.42C17.4951 25.42 17.0663 25.5904 16.7421 25.8964C16.5378 26.0916 16.3895 26.3379 16.3125 26.6097C16.2934 26.6785 16.2611 26.7429 16.2172 26.7992C16.1733 26.8554 16.1187 26.9025 16.0566 26.9377C15.9945 26.9729 15.9261 26.9955 15.8553 27.0042C15.7845 27.013 15.7126 27.0077 15.6438 26.9887C15.5751 26.9697 15.5107 26.9373 15.4544 26.8934C15.3981 26.8495 15.3511 26.7949 15.3159 26.7328C15.2807 26.6708 15.2581 26.6023 15.2493 26.5315C15.2406 26.4607 15.2459 26.3888 15.2649 26.32C15.3944 25.8611 15.6442 25.4451 15.9886 25.1151C16.516 24.6174 17.2137 24.3402 17.9389 24.3402C18.6641 24.3402 19.3618 24.6174 19.8892 25.1151C20.1478 25.3604 20.3538 25.6558 20.4945 25.9833C20.6352 26.3107 20.7078 26.6634 20.7078 27.0199C20.7078 27.3763 20.6352 27.729 20.4945 28.0565C20.3538 28.3839 20.1478 28.6793 19.8892 28.9246C19.5422 29.2568 19.1155 29.4939 18.6501 29.613C18.606 29.6243 18.5606 29.6297 18.515 29.6293Z" fill="white"/>
<path d="M21.0881 32.7269C20.3612 32.7313 19.6609 32.4532 19.1351 31.9512C19.0315 31.8514 18.9717 31.7145 18.9689 31.5706C18.9662 31.4268 19.0207 31.2877 19.1205 31.1841C19.2203 31.0804 19.3571 31.0206 19.501 31.0179C19.6449 31.0151 19.7839 31.0696 19.8876 31.1694C20.2115 31.4753 20.6402 31.6457 21.0857 31.6457C21.5312 31.6457 21.9599 31.4753 22.2838 31.1694C22.4372 31.0254 22.5594 30.8516 22.6429 30.6585C22.7265 30.4655 22.7696 30.2573 22.7696 30.047C22.7696 29.8366 22.7265 29.6285 22.6429 29.4355C22.5594 29.2424 22.4372 29.0685 22.2838 28.9245C21.9598 28.6185 21.5309 28.448 21.0852 28.448C20.6394 28.448 20.2106 28.6185 19.8865 28.9245C19.7828 29.0242 19.6437 29.0787 19.4998 29.0758C19.3559 29.073 19.2191 29.0131 19.1194 28.9093C19.0197 28.8056 18.9653 28.6665 18.9681 28.5227C18.971 28.3788 19.0309 28.242 19.1346 28.1423C19.6618 27.6442 20.3596 27.3667 21.0849 27.3667C21.8102 27.3667 22.508 27.6442 23.0352 28.1423C23.2939 28.3875 23.5 28.6828 23.6409 29.0103C23.7817 29.3378 23.8543 29.6905 23.8543 30.047C23.8543 30.4035 23.7817 30.7562 23.6409 31.0837C23.5 31.4112 23.2939 31.7065 23.0352 31.9517C22.5106 32.4517 21.8129 32.7295 21.0881 32.7269Z" fill="white"/>
<path d="M13.2154 23.0221C13.1071 23.0221 13.0014 22.9898 12.9117 22.9292C12.822 22.8686 12.7525 22.7826 12.7121 22.6822C12.6717 22.5819 12.6622 22.4717 12.6849 22.3659C12.7076 22.2601 12.7614 22.1634 12.8394 22.0885C12.9927 21.9444 13.1148 21.7705 13.1984 21.5775C13.2819 21.3845 13.3249 21.1764 13.3249 20.966C13.3249 20.7557 13.2819 20.5476 13.1984 20.3545C13.1148 20.1615 12.9927 19.9876 12.8394 19.8436C12.7871 19.7932 12.7315 19.7465 12.6729 19.7036C12.5658 19.6151 12.4968 19.4888 12.48 19.3509C12.4633 19.213 12.5001 19.0739 12.5829 18.9623C12.6657 18.8507 12.7881 18.7752 12.925 18.7512C13.0618 18.7272 13.2026 18.7567 13.3184 18.8334C13.4138 18.9045 13.5044 18.9817 13.5897 19.0645C13.8483 19.3098 14.0542 19.6051 14.195 19.9325C14.3357 20.26 14.4083 20.6126 14.4083 20.969C14.4083 21.3254 14.3357 21.678 14.195 22.0055C14.0542 22.3329 13.8483 22.6282 13.5897 22.8735C13.4886 22.9692 13.3546 23.0224 13.2154 23.0221Z" fill="white"/>
<path d="M16.9727 18.5769H16.9418C16.8358 18.5708 16.7339 18.5338 16.6487 18.4703C16.5636 18.4068 16.4989 18.3198 16.4628 18.2199C16.1661 17.2919 15.6222 16.4622 14.8895 15.8199C14.6163 16.4026 14.4486 17.0291 14.3942 17.6704C14.3903 17.7416 14.3724 17.8114 14.3415 17.8757C14.3106 17.94 14.2674 17.9976 14.2142 18.0452C14.1611 18.0929 14.0991 18.1295 14.0318 18.1532C13.9645 18.1768 13.8931 18.187 13.8219 18.183C13.7507 18.1791 13.6809 18.1612 13.6166 18.1303C13.5522 18.0994 13.4946 18.0562 13.447 18.0031C13.3994 17.9499 13.3628 17.8879 13.3391 17.8206C13.3155 17.7533 13.3053 17.6819 13.3092 17.6107C13.4005 16.6173 13.6976 15.6538 14.1816 14.7816C14.2443 14.66 14.3507 14.5666 14.4793 14.5201C14.608 14.4737 14.7495 14.4775 14.8754 14.5309C15.8343 15.0491 16.5967 15.8677 17.0454 16.861C17.8017 15.7678 19.2697 14.1414 21.1994 14.4154C21.325 14.4337 21.4402 14.4955 21.5249 14.5901C21.8631 14.9846 22.1008 15.4551 22.2177 15.9615C22.2355 16.0305 22.2395 16.1023 22.2296 16.1729C22.2196 16.2435 22.1959 16.3114 22.1597 16.3727C22.1235 16.4341 22.0755 16.4878 22.0186 16.5306C21.9617 16.5735 21.8969 16.6047 21.8279 16.6225C21.7589 16.6403 21.687 16.6444 21.6165 16.6344C21.5459 16.6245 21.478 16.6007 21.4166 16.5646C21.3552 16.5284 21.3016 16.4804 21.2587 16.4235C21.2159 16.3666 21.1846 16.3017 21.1668 16.2328C21.1036 15.9625 20.9934 15.7054 20.8413 15.4732C18.9317 15.4092 17.4659 18.2481 17.4507 18.278C17.4061 18.3668 17.3379 18.4417 17.2536 18.4944C17.1693 18.5471 17.0722 18.5757 16.9727 18.5769Z" fill="white"/>
<path d="M24.4126 28.3815C24.2771 28.3816 24.1464 28.331 24.0464 28.2396C23.9463 28.1483 23.884 28.0227 23.8718 27.8878C23.8597 27.7528 23.8984 27.6181 23.9806 27.5103C24.0627 27.4025 24.1821 27.3293 24.3155 27.3052C24.7702 27.2173 25.2151 27.0845 25.6435 26.9086C24.9596 26.2171 24.1117 25.7098 23.179 25.4341C23.0758 25.3996 22.9854 25.3348 22.9195 25.2483C22.8536 25.1618 22.8153 25.0574 22.8094 24.9488C22.8036 24.8402 22.8305 24.7324 22.8867 24.6392C22.943 24.5461 23.0259 24.4721 23.1247 24.4267C23.9732 24.0361 26.071 22.7232 26.0401 21.2151C24.3584 20.0872 21.3773 21.5232 21.3464 21.5406C21.2524 21.5862 21.1472 21.6038 21.0434 21.5911C20.9397 21.5784 20.8418 21.536 20.7616 21.469C20.6814 21.402 20.6222 21.3133 20.5912 21.2135C20.5602 21.1137 20.5587 21.007 20.5869 20.9064C20.8767 20.0271 20.8883 19.0799 20.62 18.1939C18.1993 19.4823 18.3735 20.5613 18.3773 20.5722C18.4197 20.6995 18.4133 20.8381 18.3595 20.9611C18.3057 21.084 18.2082 21.1827 18.0859 21.2379C17.9635 21.2932 17.8251 21.3011 17.6972 21.2602C17.5694 21.2193 17.4613 21.1325 17.3937 21.0165C17.168 20.627 16.4622 20.8613 16.4557 20.8641C16.3206 20.9091 16.1732 20.8992 16.0454 20.8365C15.9175 20.7738 15.8194 20.6633 15.7723 20.529C15.7251 20.3946 15.7327 20.2471 15.7934 20.1182C15.8541 19.9894 15.963 19.8896 16.0966 19.8404C16.5235 19.6928 16.9838 19.6715 17.4225 19.7791C17.6997 19.0195 18.5004 17.9888 20.6363 16.9721C20.7513 16.9173 20.8821 16.9048 21.0055 16.9367C21.1289 16.9687 21.2371 17.0431 21.3111 17.1468C21.8426 18.06 22.0309 19.1328 21.8422 20.1724C23.1225 19.7351 25.3848 19.2458 26.9059 20.5082C27.0081 20.5929 27.0757 20.7122 27.0958 20.8434C27.379 22.6939 25.7325 24.1039 24.5949 24.8417C26.4112 25.7298 26.9466 26.8554 26.9721 26.9108C27.0316 27.0403 27.0377 27.1881 26.989 27.3221C26.9404 27.4561 26.841 27.5656 26.7123 27.6269C26.0148 27.9706 25.2754 28.2219 24.513 28.3745C24.4798 28.3796 24.4462 28.3819 24.4126 28.3815Z" fill="white"/>
<path d="M16.2751 17.0975C16.1825 17.098 16.0912 17.0747 16.0101 17.0299C15.929 16.9851 15.8608 16.9203 15.8118 16.8417C15.7629 16.763 15.7349 16.6732 15.7305 16.5806C15.7261 16.4881 15.7455 16.396 15.7868 16.3131C16.2965 15.1415 16.6164 13.8962 16.7346 12.6241C14.9215 12.2931 14.6476 11.3926 14.6476 10.5875C14.6476 10.0591 14.6476 8.95999 16.2751 8.95999C17.5624 8.95999 17.9026 10.3797 17.9026 11.13C17.9026 11.3108 17.8995 11.4879 17.8934 11.6611C18.0637 11.6687 18.2471 11.6725 18.4451 11.6725C21.0784 11.6725 21.1576 5.76411 21.1576 5.70498C21.1576 5.5611 21.2148 5.42311 21.3165 5.32137C21.4182 5.21963 21.5562 5.16248 21.7001 5.16248C21.844 5.16248 21.982 5.21963 22.0837 5.32137C22.1855 5.42311 22.2426 5.5611 22.2426 5.70498C22.2426 5.99305 22.1992 12.7575 18.4451 12.7575C18.2232 12.7575 18.0144 12.7526 17.8174 12.7429C17.6914 14.1432 17.3352 15.5131 16.7633 16.7975C16.7181 16.8881 16.6483 16.9642 16.5621 17.0172C16.4758 17.0703 16.3764 17.0981 16.2751 17.0975ZM16.2751 10.045C15.7326 10.045 15.7326 10.0553 15.7326 10.5875C15.7326 10.8468 15.7326 11.3112 16.8116 11.539C16.8176 11.405 16.8176 11.2683 16.8176 11.13C16.8176 11.1208 16.7872 10.045 16.2751 10.045Z" fill="white"/>
</g>
</svg>
